<?xml version="1.0" encoding="UTF-8" standalone="no"?>
<!DOCTYPE svg PUBLIC "-//W3C//DTD SVG 1.1//EN"
 "http://www.w3.org/Graphics/SVG/1.1/DTD/svg11.dtd">
<!-- Generated by graphviz version 2.38.0 (20140413.2041)
 -->
<!-- Title: G Pages: 1 -->
<svg width="551pt" height="846pt"
 viewBox="0.00 0.00 551.15 845.98" xmlns="http://www.w3.org/2000/svg" xmlns:xlink="http://www.w3.org/1999/xlink">
<g id="graph0" class="graph" transform="scale(1 1) rotate(0) translate(4 841.985)">
<title>G</title><style>.edge>path:hover{stroke-width:8}</style>
<polygon fill="white" stroke="none" points="-4,4 -4,-841.985 547.153,-841.985 547.153,4 -4,4"/>
<!-- HealthDES -->
<g id="node1" class="node"><title>HealthDES</title><style>.edge>path:hover{stroke-width:8}</style>
<ellipse fill="#913030" stroke="black" cx="283.392" cy="-18" rx="38.0276" ry="18"/>
<text text-anchor="middle" x="283.392" y="-15.5" font-family="Helvetica,sans-Serif" font-size="10.00" fill="#ffffff">HealthDES</text>
</g>
<!-- HealthDES_ActivityBase -->
<g id="node2" class="node"><title>HealthDES_ActivityBase</title><style>.edge>path:hover{stroke-width:8}</style>
<ellipse fill="#ca1616" stroke="black" cx="225.392" cy="-406.919" rx="50.41" ry="21.4286"/>
<text text-anchor="middle" x="225.392" y="-409.919" font-family="Helvetica,sans-Serif" font-size="10.00" fill="#ffffff">HealthDES.</text>
<text text-anchor="middle" x="225.392" y="-398.919" font-family="Helvetica,sans-Serif" font-size="10.00" fill="#ffffff">ActivityBase</text>
</g>
<!-- HealthDES_ActivityBase&#45;&gt;HealthDES -->
<g id="edge1" class="edge"><title>HealthDES_ActivityBase&#45;&gt;HealthDES</title><style>.edge>path:hover{stroke-width:8}</style>
<path fill="none" stroke="black" d="M365.392,-327.492C441.518,-275.37 490.572,-279.078 523.392,-192.853 539.007,-151.828 555.263,-128.924 528.392,-94.2132"/>
</g>
<!-- HealthDES_DecisionBase -->
<g id="node6" class="node"><title>HealthDES_DecisionBase</title><style>.edge>path:hover{stroke-width:8}</style>
<ellipse fill="#cc3333" stroke="black" cx="283.392" cy="-328.492" rx="54.3945" ry="21.4286"/>
<text text-anchor="middle" x="283.392" y="-331.492" font-family="Helvetica,sans-Serif" font-size="10.00" fill="#ffffff">HealthDES.</text>
<text text-anchor="middle" x="283.392" y="-320.492" font-family="Helvetica,sans-Serif" font-size="10.00" fill="#ffffff">DecisionBase</text>
</g>
<!-- HealthDES_ActivityBase&#45;&gt;HealthDES_DecisionBase -->
<g id="edge2" class="edge"><title>HealthDES_ActivityBase&#45;&gt;HealthDES_DecisionBase</title><style>.edge>path:hover{stroke-width:8}</style>
<path fill="none" stroke="black" d="M240.328,-386.237C247.026,-377.412 255.044,-366.846 262.336,-357.237"/>
<polygon fill="#ca1616" stroke="black" points="265.249,-359.189 268.506,-349.107 259.673,-354.957 265.249,-359.189"/>
</g>
<!-- HealthDES_PersonBase -->
<g id="node7" class="node"><title>HealthDES_PersonBase</title><style>.edge>path:hover{stroke-width:8}</style>
<ellipse fill="#993333" stroke="black" cx="118.392" cy="-93.2132" rx="49.4949" ry="21.4286"/>
<text text-anchor="middle" x="118.392" y="-96.2132" font-family="Helvetica,sans-Serif" font-size="10.00" fill="#ffffff">HealthDES.</text>
<text text-anchor="middle" x="118.392" y="-85.2132" font-family="Helvetica,sans-Serif" font-size="10.00" fill="#ffffff">PersonBase</text>
</g>
<!-- HealthDES_ActivityBase&#45;&gt;HealthDES_PersonBase -->
<g id="edge3" class="edge"><title>HealthDES_ActivityBase&#45;&gt;HealthDES_PersonBase</title><style>.edge>path:hover{stroke-width:8}</style>
<path fill="none" stroke="black" d="M200.307,-388.514C149.114,-350.713 40.7412,-257.658 81.3919,-172.64"/>
</g>
<!-- HealthDES_Routing -->
<g id="node9" class="node"><title>HealthDES_Routing</title><style>.edge>path:hover{stroke-width:8}</style>
<ellipse fill="#c82323" stroke="black" cx="403.392" cy="-250.066" rx="48.1667" ry="21.4286"/>
<text text-anchor="middle" x="403.392" y="-253.066" font-family="Helvetica,sans-Serif" font-size="10.00" fill="#ffffff">HealthDES.</text>
<text text-anchor="middle" x="403.392" y="-242.066" font-family="Helvetica,sans-Serif" font-size="10.00" fill="#ffffff">Routing</text>
</g>
<!-- HealthDES_ActivityBase&#45;&gt;HealthDES_Routing -->
<g id="edge4" class="edge"><title>HealthDES_ActivityBase&#45;&gt;HealthDES_Routing</title><style>.edge>path:hover{stroke-width:8}</style>
<path fill="none" stroke="black" d="M263.12,-392.711C288.063,-382.973 320.762,-368.221 346.392,-349.706 356.386,-342.486 355.219,-336.458 365.392,-329.492"/>
<path fill="none" stroke="black" d="M365.392,-327.492C381.086,-316.747 390.595,-297.563 396.177,-281.104"/>
<polygon fill="#ca1616" stroke="black" points="399.595,-281.894 399.164,-271.308 392.899,-279.852 399.595,-281.894"/>
</g>
<!-- HealthDES_AttrActions -->
<g id="node3" class="node"><title>HealthDES_AttrActions</title><style>.edge>path:hover{stroke-width:8}</style>
<ellipse fill="#d02424" stroke="black" cx="225.392" cy="-485.345" rx="48.1667" ry="21.4286"/>
<text text-anchor="middle" x="225.392" y="-488.345" font-family="Helvetica,sans-Serif" font-size="10.00" fill="#ffffff">HealthDES.</text>
<text text-anchor="middle" x="225.392" y="-477.345" font-family="Helvetica,sans-Serif" font-size="10.00" fill="#ffffff">AttrActions</text>
</g>
<!-- HealthDES_AttrActions&#45;&gt;HealthDES_ActivityBase -->
<g id="edge5" class="edge"><title>HealthDES_AttrActions&#45;&gt;HealthDES_ActivityBase</title><style>.edge>path:hover{stroke-width:8}</style>
<path fill="none" stroke="black" d="M225.392,-463.864C225.392,-456.006 225.392,-446.861 225.392,-438.271"/>
<polygon fill="#d02424" stroke="black" points="228.892,-438.191 225.392,-428.191 221.892,-438.191 228.892,-438.191"/>
</g>
<!-- HealthDES_AttrActions&#45;&gt;HealthDES_PersonBase -->
<g id="edge6" class="edge"><title>HealthDES_AttrActions&#45;&gt;HealthDES_PersonBase</title><style>.edge>path:hover{stroke-width:8}</style>
<path fill="none" stroke="black" d="M205.364,-465.973C193.771,-455.164 179.021,-441.111 166.392,-428.132 115.95,-376.291 106.174,-360.685 57.3919,-307.279 34.4388,-282.15 -0.0049467,-284.669 5.39193,-251.066"/>
</g>
<!-- HealthDES_ResourceBase -->
<g id="node8" class="node"><title>HealthDES_ResourceBase</title><style>.edge>path:hover{stroke-width:8}</style>
<ellipse fill="#b83d3d" stroke="black" cx="418.392" cy="-93.2132" rx="56.6372" ry="21.4286"/>
<text text-anchor="middle" x="418.392" y="-96.2132" font-family="Helvetica,sans-Serif" font-size="10.00" fill="#ffffff">HealthDES.</text>
<text text-anchor="middle" x="418.392" y="-85.2132" font-family="Helvetica,sans-Serif" font-size="10.00" fill="#ffffff">ResourceBase</text>
</g>
<!-- HealthDES_AttrActions&#45;&gt;HealthDES_ResourceBase -->
<g id="edge7" class="edge"><title>HealthDES_AttrActions&#45;&gt;HealthDES_ResourceBase</title><style>.edge>path:hover{stroke-width:8}</style>
<path fill="none" stroke="black" d="M255.634,-468.609C309.318,-438.694 419.463,-367.877 460.392,-271.279 467.907,-253.541 458.887,-163.856 454.392,-150.426 451.116,-140.639 445.762,-130.857 440.173,-122.263"/>
<polygon fill="#d02424" stroke="black" points="442.892,-120.04 434.34,-113.786 437.125,-124.008 442.892,-120.04"/>
</g>
<!-- HealthDES_AttrDict -->
<g id="node4" class="node"><title>HealthDES_AttrDict</title><style>.edge>path:hover{stroke-width:8}</style>
<ellipse fill="#c24747" stroke="black" cx="327.392" cy="-563.772" rx="48.1667" ry="21.4286"/>
<text text-anchor="middle" x="327.392" y="-566.772" font-family="Helvetica,sans-Serif" font-size="10.00" fill="#ffffff">HealthDES.</text>
<text text-anchor="middle" x="327.392" y="-555.772" font-family="Helvetica,sans-Serif" font-size="10.00" fill="#ffffff">AttrDict</text>
</g>
<!-- HealthDES_AttrDict&#45;&gt;HealthDES_AttrActions -->
<g id="edge8" class="edge"><title>HealthDES_AttrDict&#45;&gt;HealthDES_AttrActions</title><style>.edge>path:hover{stroke-width:8}</style>
<path fill="none" stroke="black" d="M303.991,-545.238C290.096,-534.826 272.289,-521.484 257.139,-510.132"/>
<polygon fill="#c24747" stroke="black" points="259.139,-507.257 249.037,-504.062 254.941,-512.859 259.139,-507.257"/>
</g>
<!-- HealthDES_DataCollection -->
<g id="node5" class="node"><title>HealthDES_DataCollection</title><style>.edge>path:hover{stroke-width:8}</style>
<ellipse fill="#c82323" stroke="black" cx="204.392" cy="-250.066" rx="56.6372" ry="21.4286"/>
<text text-anchor="middle" x="204.392" y="-253.066" font-family="Helvetica,sans-Serif" font-size="10.00" fill="#ffffff">HealthDES.</text>
<text text-anchor="middle" x="204.392" y="-242.066" font-family="Helvetica,sans-Serif" font-size="10.00" fill="#ffffff">DataCollection</text>
</g>
<!-- HealthDES_DataCollection&#45;&gt;HealthDES -->
<g id="edge9" class="edge"><title>HealthDES_DataCollection&#45;&gt;HealthDES</title><style>.edge>path:hover{stroke-width:8}</style>
<path fill="none" stroke="black" d="M198.553,-228.811C194.92,-213.325 191.598,-191.5 195.392,-172.64"/>
<path fill="none" stroke="black" d="M195.392,-170.64C202.091,-137.339 174.636,-121.101 195.392,-94.2132"/>
</g>
<!-- HealthDES_SimulationBase -->
<g id="node10" class="node"><title>HealthDES_SimulationBase</title><style>.edge>path:hover{stroke-width:8}</style>
<ellipse fill="#993333" stroke="black" cx="283.392" cy="-93.2132" rx="60.2083" ry="21.4286"/>
<text text-anchor="middle" x="283.392" y="-96.2132" font-family="Helvetica,sans-Serif" font-size="10.00" fill="#ffffff">HealthDES.</text>
<text text-anchor="middle" x="283.392" y="-85.2132" font-family="Helvetica,sans-Serif" font-size="10.00" fill="#ffffff">SimulationBase</text>
</g>
<!-- HealthDES_DataCollection&#45;&gt;HealthDES_SimulationBase -->
<g id="edge10" class="edge"><title>HealthDES_DataCollection&#45;&gt;HealthDES_SimulationBase</title><style>.edge>path:hover{stroke-width:8}</style>
<path fill="none" stroke="black" d="M195.392,-170.64C200.189,-146.792 219.885,-128.489 239.43,-115.782"/>
<polygon fill="#c82323" stroke="black" points="241.345,-118.713 248.048,-110.508 237.691,-112.742 241.345,-118.713"/>
</g>
<!-- HealthDES_SimulationEnvironment -->
<g id="node11" class="node"><title>HealthDES_SimulationEnvironment</title><style>.edge>path:hover{stroke-width:8}</style>
<ellipse fill="#d31717" stroke="black" cx="305.392" cy="-171.64" rx="82.0488" ry="21.4286"/>
<text text-anchor="middle" x="305.392" y="-174.64" font-family="Helvetica,sans-Serif" font-size="10.00" fill="#ffffff">HealthDES.</text>
<text text-anchor="middle" x="305.392" y="-163.64" font-family="Helvetica,sans-Serif" font-size="10.00" fill="#ffffff">SimulationEnvironment</text>
</g>
<!-- HealthDES_DataCollection&#45;&gt;HealthDES_SimulationEnvironment -->
<g id="edge11" class="edge"><title>HealthDES_DataCollection&#45;&gt;HealthDES_SimulationEnvironment</title><style>.edge>path:hover{stroke-width:8}</style>
<path fill="none" stroke="black" d="M228.584,-230.76C241.561,-220.941 257.753,-208.688 271.92,-197.968"/>
<polygon fill="#c82323" stroke="black" points="274.126,-200.688 279.988,-191.863 269.902,-195.106 274.126,-200.688"/>
</g>
<!-- HealthDES_DecisionBase&#45;&gt;HealthDES -->
<g id="edge12" class="edge"><title>HealthDES_DecisionBase&#45;&gt;HealthDES</title><style>.edge>path:hover{stroke-width:8}</style>
<path fill="none" stroke="black" d="M195.392,-92.2132C211.537,-71.2983 234.646,-52.3614 253.132,-38.9887"/>
<polygon fill="#cc3333" stroke="black" points="255.369,-41.6938 261.521,-33.068 251.332,-35.9747 255.369,-41.6938"/>
<path fill="none" stroke="black" d="M231.356,-321.988C198.766,-315.546 159.139,-301.575 138.392,-271.279 103.645,-220.541 158.998,-141.359 195.392,-94.2132"/>
</g>
<!-- HealthDES_DecisionBase&#45;&gt;HealthDES_Routing -->
<g id="edge13" class="edge"><title>HealthDES_DecisionBase&#45;&gt;HealthDES_Routing</title><style>.edge>path:hover{stroke-width:8}</style>
<path fill="none" stroke="black" d="M310.922,-309.959C327.929,-299.127 349.917,-285.124 368.184,-273.489"/>
<polygon fill="#cc3333" stroke="black" points="370.26,-276.317 376.815,-267.993 366.5,-270.413 370.26,-276.317"/>
</g>
<!-- HealthDES_PersonBase&#45;&gt;HealthDES -->
<g id="edge14" class="edge"><title>HealthDES_PersonBase&#45;&gt;HealthDES</title><style>.edge>path:hover{stroke-width:8}</style>
<path fill="none" stroke="black" d="M151.782,-77.3974C179.532,-65.0844 218.937,-47.5998 247.388,-34.9757"/>
<polygon fill="#993333" stroke="black" points="248.863,-38.1504 256.584,-30.8953 246.023,-31.752 248.863,-38.1504"/>
</g>
<!-- HealthDES_ResourceBase&#45;&gt;HealthDES -->
<g id="edge15" class="edge"><title>HealthDES_ResourceBase&#45;&gt;HealthDES</title><style>.edge>path:hover{stroke-width:8}</style>
<path fill="none" stroke="black" d="M387.42,-75.4166C366.169,-63.8914 338.004,-48.6172 316.34,-36.8686"/>
<polygon fill="#b83d3d" stroke="black" points="317.952,-33.7612 307.493,-32.0706 314.615,-39.9146 317.952,-33.7612"/>
</g>
<!-- HealthDES_Routing&#45;&gt;HealthDES -->
<g id="edge16" class="edge"><title>HealthDES_Routing&#45;&gt;HealthDES</title><style>.edge>path:hover{stroke-width:8}</style>
<path fill="none" stroke="black" d="M528.392,-92.2132C507.165,-58.3969 394.809,-35.9562 329.867,-25.6006"/>
<polygon fill="#c82323" stroke="black" points="330.292,-22.1247 319.872,-24.0424 329.214,-29.0411 330.292,-22.1247"/>
<path fill="none" stroke="black" d="M433.226,-233.307C480.21,-206.338 562.741,-148.934 528.392,-94.2132"/>
</g>
<!-- HealthDES_Routing&#45;&gt;HealthDES_SimulationBase -->
<g id="edge17" class="edge"><title>HealthDES_Routing&#45;&gt;HealthDES_SimulationBase</title><style>.edge>path:hover{stroke-width:8}</style>
<path fill="none" stroke="black" d="M440.392,-170.64C428.202,-151.203 375.54,-128.032 334.527,-112.338"/>
<polygon fill="#c82323" stroke="black" points="335.507,-108.967 324.915,-108.713 333.037,-115.517 335.507,-108.967"/>
<path fill="none" stroke="black" d="M422.928,-230.559C437.221,-214.699 452.219,-191.498 440.392,-172.64"/>
</g>
<!-- HealthDES_Routing&#45;&gt;HealthDES_SimulationEnvironment -->
<g id="edge18" class="edge"><title>HealthDES_Routing&#45;&gt;HealthDES_SimulationEnvironment</title><style>.edge>path:hover{stroke-width:8}</style>
<path fill="none" stroke="black" d="M380.662,-231.34C367.995,-221.461 352.002,-208.989 338.019,-198.084"/>
<polygon fill="#c82323" stroke="black" points="340.096,-195.266 330.058,-191.876 335.791,-200.786 340.096,-195.266"/>
</g>
<!-- HealthDES_SimulationBase&#45;&gt;HealthDES -->
<g id="edge19" class="edge"><title>HealthDES_SimulationBase&#45;&gt;HealthDES</title><style>.edge>path:hover{stroke-width:8}</style>
<path fill="none" stroke="black" d="M283.392,-71.8192C283.392,-63.9653 283.392,-54.8636 283.392,-46.4512"/>
<polygon fill="#993333" stroke="black" points="286.892,-46.3099 283.392,-36.3099 279.892,-46.31 286.892,-46.3099"/>
</g>
<!-- HealthDES_SimulationEnvironment&#45;&gt;HealthDES_ActivityBase -->
<g id="edge20" class="edge"><title>HealthDES_SimulationEnvironment&#45;&gt;HealthDES_ActivityBase</title><style>.edge>path:hover{stroke-width:8}</style>
<path fill="none" stroke="black" d="M310.95,-193.055C315.504,-214.444 318.946,-248.094 303.392,-271.279 280.991,-304.67 242.454,-273.663 220.392,-307.279 207.213,-327.36 209.954,-354.999 215.138,-375.912"/>
<polygon fill="#d31717" stroke="black" points="211.773,-376.875 217.82,-385.575 218.518,-375.003 211.773,-376.875"/>
</g>
<!-- HealthDES_SimulationEnvironment&#45;&gt;HealthDES_PersonBase -->
<g id="edge21" class="edge"><title>HealthDES_SimulationEnvironment&#45;&gt;HealthDES_PersonBase</title><style>.edge>path:hover{stroke-width:8}</style>
<path fill="none" stroke="black" d="M262.959,-153.297C233.01,-141.057 192.978,-124.696 162.634,-112.295"/>
<polygon fill="#d31717" stroke="black" points="163.728,-108.961 153.147,-108.418 161.08,-115.441 163.728,-108.961"/>
</g>
<!-- HealthDES_SimulationEnvironment&#45;&gt;HealthDES_ResourceBase -->
<g id="edge22" class="edge"><title>HealthDES_SimulationEnvironment&#45;&gt;HealthDES_ResourceBase</title><style>.edge>path:hover{stroke-width:8}</style>
<path fill="none" stroke="black" d="M333.615,-151.551C348.728,-141.33 367.478,-128.649 383.498,-117.813"/>
<polygon fill="#d31717" stroke="black" points="385.755,-120.512 392.078,-112.011 381.834,-114.714 385.755,-120.512"/>
</g>
<!-- HealthDES_SimulationEnvironment&#45;&gt;HealthDES_SimulationBase -->
<g id="edge23" class="edge"><title>HealthDES_SimulationEnvironment&#45;&gt;HealthDES_SimulationBase</title><style>.edge>path:hover{stroke-width:8}</style>
<path fill="none" stroke="black" d="M299.496,-150.159C297.209,-142.214 294.544,-132.955 292.048,-124.283"/>
<polygon fill="#d31717" stroke="black" points="295.357,-123.127 289.228,-114.486 288.63,-125.064 295.357,-123.127"/>
</g>
<!-- HealthDES_StateDict -->
<g id="node12" class="node"><title>HealthDES_StateDict</title><style>.edge>path:hover{stroke-width:8}</style>
<ellipse fill="#c24747" stroke="black" cx="213.392" cy="-563.772" rx="48.1667" ry="21.4286"/>
<text text-anchor="middle" x="213.392" y="-566.772" font-family="Helvetica,sans-Serif" font-size="10.00" fill="#ffffff">HealthDES.</text>
<text text-anchor="middle" x="213.392" y="-555.772" font-family="Helvetica,sans-Serif" font-size="10.00" fill="#ffffff">StateDict</text>
</g>
<!-- HealthDES_StateDict&#45;&gt;HealthDES_AttrActions -->
<g id="edge24" class="edge"><title>HealthDES_StateDict&#45;&gt;HealthDES_AttrActions</title><style>.edge>path:hover{stroke-width:8}</style>
<path fill="none" stroke="black" d="M216.608,-542.291C217.842,-534.432 219.277,-525.288 220.626,-516.698"/>
<polygon fill="#c24747" stroke="black" points="224.115,-517.04 222.209,-506.618 217.2,-515.954 224.115,-517.04"/>
</g>
<!-- main -->
<g id="node13" class="node"><title>main</title><style>.edge>path:hover{stroke-width:8}</style>
<polygon fill="#6b572e" stroke="black" points="349.392,-837.985 346.392,-841.985 325.392,-841.985 322.392,-837.985 295.392,-837.985 295.392,-801.985 349.392,-801.985 349.392,-837.985"/>
<text text-anchor="middle" x="322.392" y="-817.485" font-family="Helvetica,sans-Serif" font-size="10.00" fill="#ffffff">main</text>
</g>
<!-- pkgresources -->
<g id="node17" class="node"><title>pkgresources</title><style>.edge>path:hover{stroke-width:8}</style>
<polygon fill="#2f2fbc" stroke="black" points="359.892,-765.985 356.892,-769.985 335.892,-769.985 332.892,-765.985 284.892,-765.985 284.892,-729.985 359.892,-729.985 359.892,-765.985"/>
<text text-anchor="middle" x="322.392" y="-745.485" font-family="Helvetica,sans-Serif" font-size="10.00" fill="#ffffff">pkgresources</text>
</g>
<!-- main&#45;&gt;pkgresources -->
<g id="edge25" class="edge"><title>main&#45;&gt;pkgresources</title><style>.edge>path:hover{stroke-width:8}</style>
<path fill="none" stroke="black" d="M322.392,-801.681C322.392,-793.968 322.392,-784.697 322.392,-776.097"/>
<polygon fill="#6b572e" stroke="black" points="325.892,-776.089 322.392,-766.089 318.892,-776.089 325.892,-776.089"/>
</g>
<!-- networkx -->
<g id="node14" class="node"><title>networkx</title><style>.edge>path:hover{stroke-width:8}</style>
<polygon fill="#039503" stroke="black" points="441.392,-424.919 438.392,-428.919 417.392,-428.919 414.392,-424.919 385.392,-424.919 385.392,-388.919 441.392,-388.919 441.392,-424.919"/>
<text text-anchor="middle" x="413.392" y="-404.419" font-family="Helvetica,sans-Serif" font-size="10.00" fill="#ffffff">networkx</text>
</g>
<!-- networkx&#45;&gt;HealthDES_Routing -->
<g id="edge26" class="edge"><title>networkx&#45;&gt;HealthDES_Routing</title><style>.edge>path:hover{stroke-width:8}</style>
<path fill="none" stroke="black" d="M412.284,-388.755C410.616,-362.932 407.437,-313.704 405.367,-281.646"/>
<polygon fill="#039503" stroke="black" points="408.848,-281.244 404.711,-271.491 401.863,-281.696 408.848,-281.244"/>
</g>
<!-- numpy -->
<g id="node15" class="node"><title>numpy</title><style>.edge>path:hover{stroke-width:8}</style>
<polygon fill="#039565" stroke="black" points="523.392,-765.985 520.392,-769.985 499.392,-769.985 496.392,-765.985 469.392,-765.985 469.392,-729.985 523.392,-729.985 523.392,-765.985"/>
<text text-anchor="middle" x="496.392" y="-745.485" font-family="Helvetica,sans-Serif" font-size="10.00" fill="#ffffff">numpy</text>
</g>
<!-- numpy&#45;&gt;networkx -->
<g id="edge27" class="edge"><title>numpy&#45;&gt;networkx</title><style>.edge>path:hover{stroke-width:8}</style>
<path fill="none" stroke="black" d="M498.224,-729.775C500.07,-708.498 501.931,-671.264 496.392,-639.985"/>
<path fill="none" stroke="black" d="M496.392,-637.985C490.913,-610.041 472.212,-610.891 460.392,-584.985 437.42,-534.637 423.962,-470.931 417.698,-435.285"/>
<polygon fill="#039565" stroke="black" points="421.106,-434.443 415.983,-425.169 414.204,-435.613 421.106,-434.443"/>
</g>
<!-- pandas -->
<g id="node16" class="node"><title>pandas</title><style>.edge>path:hover{stroke-width:8}</style>
<polygon fill="#036595" stroke="black" points="523.392,-581.772 520.392,-585.772 499.392,-585.772 496.392,-581.772 469.392,-581.772 469.392,-545.772 523.392,-545.772 523.392,-581.772"/>
<text text-anchor="middle" x="496.392" y="-561.272" font-family="Helvetica,sans-Serif" font-size="10.00" fill="#ffffff">pandas</text>
</g>
<!-- numpy&#45;&gt;pandas -->
<g id="edge28" class="edge"><title>numpy&#45;&gt;pandas</title><style>.edge>path:hover{stroke-width:8}</style>
<path fill="none" stroke="black" d="M496.392,-637.985C493.734,-622.974 493.566,-605.958 494.139,-592.111"/>
<polygon fill="#039565" stroke="black" points="497.653,-591.966 494.724,-581.784 490.664,-591.57 497.653,-591.966"/>
</g>
<!-- pandas&#45;&gt;HealthDES_DataCollection -->
<g id="edge29" class="edge"><title>pandas&#45;&gt;HealthDES_DataCollection</title><style>.edge>path:hover{stroke-width:8}</style>
<path fill="none" stroke="black" d="M479.392,-327.492C458.087,-290.815 342.293,-269.014 267.915,-258.595"/>
<polygon fill="#036595" stroke="black" points="268.091,-255.087 257.709,-257.2 267.143,-262.022 268.091,-255.087"/>
<path fill="none" stroke="black" d="M479.392,-484.345C458.667,-418.716 513.96,-389.005 479.392,-329.492"/>
</g>
<!-- pandas&#45;&gt;HealthDES_SimulationBase -->
<g id="edge30" class="edge"><title>pandas&#45;&gt;HealthDES_SimulationBase</title><style>.edge>path:hover{stroke-width:8}</style>
<path fill="none" stroke="black" d="M479.392,-327.492C455.991,-289.471 472.131,-271.928 460.392,-228.853 453.42,-203.268 454.481,-195.105 440.392,-172.64"/>
</g>
<!-- pandas&#45;&gt;networkx -->
<g id="edge31" class="edge"><title>pandas&#45;&gt;networkx</title><style>.edge>path:hover{stroke-width:8}</style>
<path fill="none" stroke="black" d="M493.448,-545.548C490.567,-529.909 485.695,-506.306 479.392,-486.345"/>
<path fill="none" stroke="black" d="M479.392,-484.345C472.978,-464.033 457.785,-445.787 443.592,-432.22"/>
<polygon fill="#036595" stroke="black" points="445.619,-429.332 435.871,-425.181 440.903,-434.505 445.619,-429.332"/>
</g>
<!-- pkgresources&#45;&gt;pandas -->
<g id="edge32" class="edge"><title>pkgresources&#45;&gt;pandas</title><style>.edge>path:hover{stroke-width:8}</style>
<path fill="none" stroke="black" d="M322.392,-692.985C295.367,-628.159 400.874,-589.588 459.561,-573.534"/>
<polygon fill="#2f2fbc" stroke="black" points="460.47,-576.914 469.242,-570.973 458.679,-570.147 460.47,-576.914"/>
</g>
<!-- simpy -->
<g id="node18" class="node"><title>simpy</title><style>.edge>path:hover{stroke-width:8}</style>
<polygon fill="#6b049f" stroke="black" points="147.392,-581.772 144.392,-585.772 123.392,-585.772 120.392,-581.772 93.3919,-581.772 93.3919,-545.772 147.392,-545.772 147.392,-581.772"/>
<text text-anchor="middle" x="120.392" y="-561.272" font-family="Helvetica,sans-Serif" font-size="10.00" fill="#ffffff">simpy</text>
</g>
<!-- pkgresources&#45;&gt;simpy -->
<g id="edge33" class="edge"><title>pkgresources&#45;&gt;simpy</title><style>.edge>path:hover{stroke-width:8}</style>
<path fill="none" stroke="black" d="M322.392,-692.985C306.923,-652.334 268.81,-679.159 231.392,-656.985 198.951,-637.761 166.287,-609.265 144.875,-589.046"/>
<polygon fill="#2f2fbc" stroke="black" points="147.162,-586.39 137.517,-582.004 142.322,-591.447 147.162,-586.39"/>
<path fill="none" stroke="black" d="M325.551,-729.67C326.74,-719.009 326.881,-705.271 322.392,-693.985"/>
</g>
<!-- simpy&#45;&gt;HealthDES_ActivityBase -->
<g id="edge34" class="edge"><title>simpy&#45;&gt;HealthDES_ActivityBase</title><style>.edge>path:hover{stroke-width:8}</style>
<path fill="none" stroke="black" d="M147.392,-484.345C149.949,-461.352 167.792,-442.913 185.767,-429.912"/>
<polygon fill="#6b049f" stroke="black" points="188.22,-432.477 194.535,-423.97 184.293,-426.683 188.22,-432.477"/>
</g>
<!-- simpy&#45;&gt;HealthDES_DataCollection -->
<g id="edge35" class="edge"><title>simpy&#45;&gt;HealthDES_DataCollection</title><style>.edge>path:hover{stroke-width:8}</style>
<path fill="none" stroke="black" d="M43.3919,-327.492C53.6192,-285.854 99.9492,-266.9 140.3,-258.273"/>
<polygon fill="#6b049f" stroke="black" points="140.997,-261.703 150.136,-256.342 139.649,-254.834 140.997,-261.703"/>
</g>
<!-- simpy&#45;&gt;HealthDES_PersonBase -->
<g id="edge36" class="edge"><title>simpy&#45;&gt;HealthDES_PersonBase</title><style>.edge>path:hover{stroke-width:8}</style>
<path fill="none" stroke="black" d="M147.392,-484.345C152.754,-443.241 33.5042,-369.748 43.3919,-329.492"/>
<path fill="none" stroke="black" d="M43.3919,-327.492C41.5931,-289.601 -0.948204,-288.467 5.39193,-251.066"/>
<path fill="none" stroke="black" d="M127.648,-545.473C133.784,-530.18 142.359,-507.134 147.392,-486.345"/>
</g>
<!-- simpy&#45;&gt;HealthDES_SimulationBase -->
<g id="edge37" class="edge"><title>simpy&#45;&gt;HealthDES_SimulationBase</title><style>.edge>path:hover{stroke-width:8}</style>
<path fill="none" stroke="black" d="M43.3919,-327.492C38.3225,-220.703 164.51,-146.916 235.902,-113.855"/>
<polygon fill="#6b049f" stroke="black" points="237.51,-116.968 245.17,-109.648 234.617,-110.594 237.51,-116.968"/>
</g>
<!-- simpy&#45;&gt;HealthDES_SimulationEnvironment -->
<g id="edge38" class="edge"><title>simpy&#45;&gt;HealthDES_SimulationEnvironment</title><style>.edge>path:hover{stroke-width:8}</style>
<path fill="none" stroke="black" d="M147.392,-484.345C156.576,-401.763 149.748,-367.123 207.392,-307.279 229.765,-284.053 249.708,-296.021 270.392,-271.279 286.743,-251.72 295.684,-223.974 300.426,-202.888"/>
<polygon fill="#6b049f" stroke="black" points="303.906,-203.342 302.486,-192.843 297.049,-201.936 303.906,-203.342"/>
</g>
<!-- yaml -->
<g id="node19" class="node"><title>yaml</title><style>.edge>path:hover{stroke-width:8}</style>
<polygon fill="#95b653" stroke="black" points="294.392,-656.985 291.392,-660.985 270.392,-660.985 267.392,-656.985 240.392,-656.985 240.392,-620.985 294.392,-620.985 294.392,-656.985"/>
<text text-anchor="middle" x="267.392" y="-636.485" font-family="Helvetica,sans-Serif" font-size="10.00" fill="#000000">yaml</text>
</g>
<!-- yaml&#45;&gt;HealthDES_ActivityBase -->
<g id="edge39" class="edge"><title>yaml&#45;&gt;HealthDES_ActivityBase</title><style>.edge>path:hover{stroke-width:8}</style>
<path fill="none" stroke="black" d="M294.5,-626.451C328.112,-612.042 381.38,-588.804 384.392,-584.985 412.042,-549.932 421.182,-527.293 403.392,-486.345"/>
<path fill="none" stroke="black" d="M403.392,-484.345C385.432,-438.269 329.376,-419.909 284.915,-412.628"/>
<polygon fill="#95b653" stroke="black" points="285.165,-409.127 274.759,-411.12 284.137,-416.051 285.165,-409.127"/>
</g>
<!-- yaml&#45;&gt;HealthDES_PersonBase -->
<g id="edge40" class="edge"><title>yaml&#45;&gt;HealthDES_PersonBase</title><style>.edge>path:hover{stroke-width:8}</style>
<path fill="none" stroke="black" d="M81.3919,-170.64C88.832,-155.079 97.1998,-137.778 104.093,-123.578"/>
<polygon fill="#95b653" stroke="black" points="107.378,-124.826 108.601,-114.302 101.082,-121.766 107.378,-124.826"/>
<path fill="none" stroke="black" d="M5.39193,-249.066C13.3982,-201.837 60.7281,-215.857 81.3919,-172.64"/>
<path fill="none" stroke="black" d="M240.34,-635.156C173.4,-626.511 5.39193,-594.084 5.39193,-486.345 5.39193,-486.345 5.39193,-486.345 5.39193,-405.919 5.39193,-337.095 -6.11085,-318.921 5.39193,-251.066"/>
</g>
<!-- yaml&#45;&gt;networkx -->
<g id="edge41" class="edge"><title>yaml&#45;&gt;networkx</title><style>.edge>path:hover{stroke-width:8}</style>
<path fill="none" stroke="black" d="M403.392,-484.345C397.272,-468.643 399.593,-449.895 403.532,-434.897"/>
<polygon fill="#95b653" stroke="black" points="406.921,-435.78 406.433,-425.196 400.214,-433.774 406.921,-435.78"/>
</g>
</g>
</svg>
