<?xml version="1.0" encoding="UTF-8" standalone="no"?>
<!DOCTYPE svg PUBLIC "-//W3C//DTD SVG 1.1//EN"
 "http://www.w3.org/Graphics/SVG/1.1/DTD/svg11.dtd">
<!-- Generated by graphviz version 2.38.0 (20140413.2041)
 -->
<!-- Title: G Pages: 1 -->
<svg width="584pt" height="840pt"
 viewBox="0.00 0.00 584.40 839.56" xmlns="http://www.w3.org/2000/svg" xmlns:xlink="http://www.w3.org/1999/xlink">
<g id="graph0" class="graph" transform="scale(1 1) rotate(0) translate(4 835.558)">
<title>G</title><style>.edge>path:hover{stroke-width:8}</style>
<polygon fill="white" stroke="none" points="-4,4 -4,-835.558 580.405,-835.558 580.405,4 -4,4"/>
<!-- HealthDES -->
<g id="node1" class="node"><title>HealthDES</title><style>.edge>path:hover{stroke-width:8}</style>
<ellipse fill="#883a3a" stroke="black" cx="246.405" cy="-18" rx="38.0276" ry="18"/>
<text text-anchor="middle" x="246.405" y="-15.5" font-family="Helvetica,sans-Serif" font-size="10.00" fill="#ffffff">HealthDES</text>
</g>
<!-- HealthDES_ActivityBase -->
<g id="node2" class="node"><title>HealthDES_ActivityBase</title><style>.edge>path:hover{stroke-width:8}</style>
<ellipse fill="#b42d2d" stroke="black" cx="287.405" cy="-328.492" rx="50.41" ry="21.4286"/>
<text text-anchor="middle" x="287.405" y="-331.492" font-family="Helvetica,sans-Serif" font-size="10.00" fill="#ffffff">HealthDES.</text>
<text text-anchor="middle" x="287.405" y="-320.492" font-family="Helvetica,sans-Serif" font-size="10.00" fill="#ffffff">ActivityBase</text>
</g>
<!-- HealthDES_ActivityBase&#45;&gt;HealthDES -->
<g id="edge1" class="edge"><title>HealthDES_ActivityBase&#45;&gt;HealthDES</title><style>.edge>path:hover{stroke-width:8}</style>
<path fill="none" stroke="black" d="M322.898,-313.141C370.882,-291.298 453.034,-244.506 475.405,-172.64"/>
</g>
<!-- HealthDES_Routing -->
<g id="node9" class="node"><title>HealthDES_Routing</title><style>.edge>path:hover{stroke-width:8}</style>
<ellipse fill="#d31717" stroke="black" cx="285.405" cy="-250.066" rx="48.1667" ry="21.4286"/>
<text text-anchor="middle" x="285.405" y="-253.066" font-family="Helvetica,sans-Serif" font-size="10.00" fill="#ffffff">HealthDES.</text>
<text text-anchor="middle" x="285.405" y="-242.066" font-family="Helvetica,sans-Serif" font-size="10.00" fill="#ffffff">Routing</text>
</g>
<!-- HealthDES_ActivityBase&#45;&gt;HealthDES_Routing -->
<g id="edge2" class="edge"><title>HealthDES_ActivityBase&#45;&gt;HealthDES_Routing</title><style>.edge>path:hover{stroke-width:8}</style>
<path fill="none" stroke="black" d="M286.869,-307.012C286.663,-299.153 286.424,-290.009 286.199,-281.418"/>
<polygon fill="#b42d2d" stroke="black" points="289.696,-281.243 285.935,-271.338 282.698,-281.427 289.696,-281.243"/>
</g>
<!-- HealthDES_AttrActions -->
<g id="node3" class="node"><title>HealthDES_AttrActions</title><style>.edge>path:hover{stroke-width:8}</style>
<ellipse fill="#d02424" stroke="black" cx="370.405" cy="-406.919" rx="48.1667" ry="21.4286"/>
<text text-anchor="middle" x="370.405" y="-409.919" font-family="Helvetica,sans-Serif" font-size="10.00" fill="#ffffff">HealthDES.</text>
<text text-anchor="middle" x="370.405" y="-398.919" font-family="Helvetica,sans-Serif" font-size="10.00" fill="#ffffff">AttrActions</text>
</g>
<!-- HealthDES_AttrActions&#45;&gt;HealthDES_ActivityBase -->
<g id="edge3" class="edge"><title>HealthDES_AttrActions&#45;&gt;HealthDES_ActivityBase</title><style>.edge>path:hover{stroke-width:8}</style>
<path fill="none" stroke="black" d="M350.313,-387.418C339.788,-377.727 326.733,-365.706 315.249,-355.131"/>
<polygon fill="#d02424" stroke="black" points="317.327,-352.287 307.6,-348.088 312.585,-357.436 317.327,-352.287"/>
</g>
<!-- HealthDES_PersonBase -->
<g id="node7" class="node"><title>HealthDES_PersonBase</title><style>.edge>path:hover{stroke-width:8}</style>
<ellipse fill="#993333" stroke="black" cx="370.405" cy="-93.2132" rx="49.4949" ry="21.4286"/>
<text text-anchor="middle" x="370.405" y="-96.2132" font-family="Helvetica,sans-Serif" font-size="10.00" fill="#ffffff">HealthDES.</text>
<text text-anchor="middle" x="370.405" y="-85.2132" font-family="Helvetica,sans-Serif" font-size="10.00" fill="#ffffff">PersonBase</text>
</g>
<!-- HealthDES_AttrActions&#45;&gt;HealthDES_PersonBase -->
<g id="edge4" class="edge"><title>HealthDES_AttrActions&#45;&gt;HealthDES_PersonBase</title><style>.edge>path:hover{stroke-width:8}</style>
<path fill="none" stroke="black" d="M370.405,-170.64C362.669,-156.861 362.131,-139.362 363.768,-124.586"/>
<polygon fill="#d02424" stroke="black" points="367.273,-124.804 365.272,-114.4 360.348,-123.782 367.273,-124.804"/>
</g>
<!-- HealthDES_ResourceBase -->
<g id="node8" class="node"><title>HealthDES_ResourceBase</title><style>.edge>path:hover{stroke-width:8}</style>
<ellipse fill="#b83d3d" stroke="black" cx="246.405" cy="-93.2132" rx="56.6372" ry="21.4286"/>
<text text-anchor="middle" x="246.405" y="-96.2132" font-family="Helvetica,sans-Serif" font-size="10.00" fill="#ffffff">HealthDES.</text>
<text text-anchor="middle" x="246.405" y="-85.2132" font-family="Helvetica,sans-Serif" font-size="10.00" fill="#ffffff">ResourceBase</text>
</g>
<!-- HealthDES_AttrActions&#45;&gt;HealthDES_ResourceBase -->
<g id="edge5" class="edge"><title>HealthDES_AttrActions&#45;&gt;HealthDES_ResourceBase</title><style>.edge>path:hover{stroke-width:8}</style>
<path fill="none" stroke="black" d="M376.539,-385.868C388.301,-343.361 409.562,-242.387 370.405,-172.64"/>
<path fill="none" stroke="black" d="M370.405,-170.64C356.043,-142.033 325.569,-123.031 298.427,-111.129"/>
<polygon fill="#d02424" stroke="black" points="299.575,-107.816 288.997,-107.212 296.889,-114.281 299.575,-107.816"/>
</g>
<!-- HealthDES_AttrDict -->
<g id="node4" class="node"><title>HealthDES_AttrDict</title><style>.edge>path:hover{stroke-width:8}</style>
<ellipse fill="#c24747" stroke="black" cx="359.405" cy="-485.345" rx="48.1667" ry="21.4286"/>
<text text-anchor="middle" x="359.405" y="-488.345" font-family="Helvetica,sans-Serif" font-size="10.00" fill="#ffffff">HealthDES.</text>
<text text-anchor="middle" x="359.405" y="-477.345" font-family="Helvetica,sans-Serif" font-size="10.00" fill="#ffffff">AttrDict</text>
</g>
<!-- HealthDES_AttrDict&#45;&gt;HealthDES_AttrActions -->
<g id="edge6" class="edge"><title>HealthDES_AttrDict&#45;&gt;HealthDES_AttrActions</title><style>.edge>path:hover{stroke-width:8}</style>
<path fill="none" stroke="black" d="M362.353,-463.864C363.484,-456.006 364.8,-446.861 366.036,-438.271"/>
<polygon fill="#c24747" stroke="black" points="369.527,-438.588 367.487,-428.191 362.598,-437.591 369.527,-438.588"/>
</g>
<!-- HealthDES_DataCollection -->
<g id="node5" class="node"><title>HealthDES_DataCollection</title><style>.edge>path:hover{stroke-width:8}</style>
<ellipse fill="#c82323" stroke="black" cx="70.4049" cy="-250.066" rx="56.6372" ry="21.4286"/>
<text text-anchor="middle" x="70.4049" y="-253.066" font-family="Helvetica,sans-Serif" font-size="10.00" fill="#ffffff">HealthDES.</text>
<text text-anchor="middle" x="70.4049" y="-242.066" font-family="Helvetica,sans-Serif" font-size="10.00" fill="#ffffff">DataCollection</text>
</g>
<!-- HealthDES_DataCollection&#45;&gt;HealthDES -->
<g id="edge7" class="edge"><title>HealthDES_DataCollection&#45;&gt;HealthDES</title><style>.edge>path:hover{stroke-width:8}</style>
<path fill="none" stroke="black" d="M50.6629,-229.949C37.9452,-215.555 23.7192,-194.601 23.4049,-172.64"/>
<path fill="none" stroke="black" d="M23.4049,-170.64C22.7661,-125.998 11.8601,-104.562 42.4049,-72 63.6898,-49.3097 146.702,-33.3791 200.049,-25.239"/>
<polygon fill="#c82323" stroke="black" points="200.594,-28.6966 209.97,-23.7625 199.564,-21.7729 200.594,-28.6966"/>
</g>
<!-- HealthDES_SimulationBase -->
<g id="node10" class="node"><title>HealthDES_SimulationBase</title><style>.edge>path:hover{stroke-width:8}</style>
<ellipse fill="#a13535" stroke="black" cx="111.405" cy="-93.2132" rx="60.2083" ry="21.4286"/>
<text text-anchor="middle" x="111.405" y="-96.2132" font-family="Helvetica,sans-Serif" font-size="10.00" fill="#ffffff">HealthDES.</text>
<text text-anchor="middle" x="111.405" y="-85.2132" font-family="Helvetica,sans-Serif" font-size="10.00" fill="#ffffff">SimulationBase</text>
</g>
<!-- HealthDES_DataCollection&#45;&gt;HealthDES_SimulationBase -->
<g id="edge8" class="edge"><title>HealthDES_DataCollection&#45;&gt;HealthDES_SimulationBase</title><style>.edge>path:hover{stroke-width:8}</style>
<path fill="none" stroke="black" d="M23.4049,-170.64C23.0499,-145.832 43.2203,-127.257 64.3368,-114.634"/>
<polygon fill="#c82323" stroke="black" points="66.0458,-117.688 73.0677,-109.754 62.6309,-111.578 66.0458,-117.688"/>
</g>
<!-- HealthDES_SimulationEnvironment -->
<g id="node11" class="node"><title>HealthDES_SimulationEnvironment</title><style>.edge>path:hover{stroke-width:8}</style>
<ellipse fill="#d31717" stroke="black" cx="171.405" cy="-171.64" rx="82.0488" ry="21.4286"/>
<text text-anchor="middle" x="171.405" y="-174.64" font-family="Helvetica,sans-Serif" font-size="10.00" fill="#ffffff">HealthDES.</text>
<text text-anchor="middle" x="171.405" y="-163.64" font-family="Helvetica,sans-Serif" font-size="10.00" fill="#ffffff">SimulationEnvironment</text>
</g>
<!-- HealthDES_DataCollection&#45;&gt;HealthDES_SimulationEnvironment -->
<g id="edge9" class="edge"><title>HealthDES_DataCollection&#45;&gt;HealthDES_SimulationEnvironment</title><style>.edge>path:hover{stroke-width:8}</style>
<path fill="none" stroke="black" d="M94.5969,-230.76C107.574,-220.941 123.766,-208.688 137.933,-197.968"/>
<polygon fill="#c82323" stroke="black" points="140.139,-200.688 146.001,-191.863 135.915,-195.106 140.139,-200.688"/>
</g>
<!-- HealthDES_DecisionBase -->
<g id="node6" class="node"><title>HealthDES_DecisionBase</title><style>.edge>path:hover{stroke-width:8}</style>
<ellipse fill="#ce3b3b" stroke="black" cx="519.405" cy="-328.492" rx="54.3945" ry="21.4286"/>
<text text-anchor="middle" x="519.405" y="-331.492" font-family="Helvetica,sans-Serif" font-size="10.00" fill="#ffffff">HealthDES.</text>
<text text-anchor="middle" x="519.405" y="-320.492" font-family="Helvetica,sans-Serif" font-size="10.00" fill="#ffffff">DecisionBase</text>
</g>
<!-- HealthDES_DecisionBase&#45;&gt;HealthDES -->
<g id="edge10" class="edge"><title>HealthDES_DecisionBase&#45;&gt;HealthDES</title><style>.edge>path:hover{stroke-width:8}</style>
<path fill="none" stroke="black" d="M506.828,-307.552C489.87,-278.164 463.131,-221.426 475.405,-172.64"/>
</g>
<!-- HealthDES_DecisionBase&#45;&gt;HealthDES_Routing -->
<g id="edge11" class="edge"><title>HealthDES_DecisionBase&#45;&gt;HealthDES_Routing</title><style>.edge>path:hover{stroke-width:8}</style>
<path fill="none" stroke="black" d="M478.912,-314.267C438.258,-300.989 375.659,-280.544 332.735,-266.525"/>
<polygon fill="#ce3b3b" stroke="black" points="333.675,-263.15 323.083,-263.372 331.502,-269.804 333.675,-263.15"/>
</g>
<!-- HealthDES_PersonBase&#45;&gt;HealthDES -->
<g id="edge12" class="edge"><title>HealthDES_PersonBase&#45;&gt;HealthDES</title><style>.edge>path:hover{stroke-width:8}</style>
<path fill="none" stroke="black" d="M342.267,-75.6C323.182,-64.3315 297.921,-49.4168 278.122,-37.7268"/>
<polygon fill="#993333" stroke="black" points="279.842,-34.6777 269.451,-32.6073 276.283,-40.7054 279.842,-34.6777"/>
</g>
<!-- HealthDES_ResourceBase&#45;&gt;HealthDES -->
<g id="edge13" class="edge"><title>HealthDES_ResourceBase&#45;&gt;HealthDES</title><style>.edge>path:hover{stroke-width:8}</style>
<path fill="none" stroke="black" d="M246.405,-71.8192C246.405,-63.9653 246.405,-54.8636 246.405,-46.4512"/>
<polygon fill="#b83d3d" stroke="black" points="249.905,-46.3099 246.405,-36.3099 242.905,-46.31 249.905,-46.3099"/>
</g>
<!-- HealthDES_Routing&#45;&gt;HealthDES -->
<g id="edge14" class="edge"><title>HealthDES_Routing&#45;&gt;HealthDES</title><style>.edge>path:hover{stroke-width:8}</style>
<path fill="none" stroke="black" d="M475.405,-170.64C496.793,-127.041 465.398,-103.461 428.405,-72 390.698,-39.9324 334.475,-27.251 294.508,-22.2453"/>
<polygon fill="#d31717" stroke="black" points="294.795,-18.7555 284.464,-21.1049 294.005,-25.7108 294.795,-18.7555"/>
<path fill="none" stroke="black" d="M321.907,-236.022C376.41,-216.318 472.981,-180.426 475.405,-172.64"/>
</g>
<!-- HealthDES_Routing&#45;&gt;HealthDES_PersonBase -->
<g id="edge15" class="edge"><title>HealthDES_Routing&#45;&gt;HealthDES_PersonBase</title><style>.edge>path:hover{stroke-width:8}</style>
<path fill="none" stroke="black" d="M325.405,-170.64C322.169,-152.389 331.925,-134.404 343.172,-120.47"/>
<polygon fill="#d31717" stroke="black" points="345.955,-122.604 349.879,-112.762 340.674,-118.009 345.955,-122.604"/>
</g>
<!-- HealthDES_Routing&#45;&gt;HealthDES_SimulationBase -->
<g id="edge16" class="edge"><title>HealthDES_Routing&#45;&gt;HealthDES_SimulationBase</title><style>.edge>path:hover{stroke-width:8}</style>
<path fill="none" stroke="black" d="M325.405,-170.64C323.926,-162.297 228.044,-130.729 165.138,-110.868"/>
<polygon fill="#d31717" stroke="black" points="165.934,-107.449 155.345,-107.786 163.833,-114.126 165.934,-107.449"/>
<path fill="none" stroke="black" d="M303.837,-230.173C316.043,-215.401 329.17,-193.874 325.405,-172.64"/>
</g>
<!-- HealthDES_Routing&#45;&gt;HealthDES_SimulationEnvironment -->
<g id="edge17" class="edge"><title>HealthDES_Routing&#45;&gt;HealthDES_SimulationEnvironment</title><style>.edge>path:hover{stroke-width:8}</style>
<path fill="none" stroke="black" d="M259.821,-231.914C244.616,-221.721 225.073,-208.619 208.229,-197.327"/>
<polygon fill="#d31717" stroke="black" points="209.959,-194.273 199.704,-191.611 206.061,-200.087 209.959,-194.273"/>
</g>
<!-- HealthDES_SimulationBase&#45;&gt;HealthDES -->
<g id="edge18" class="edge"><title>HealthDES_SimulationBase&#45;&gt;HealthDES</title><style>.edge>path:hover{stroke-width:8}</style>
<path fill="none" stroke="black" d="M143.056,-75.048C164.101,-63.6348 191.696,-48.6697 213.077,-37.0743"/>
<polygon fill="#a13535" stroke="black" points="214.998,-40.0143 222.12,-32.1703 211.661,-33.8609 214.998,-40.0143"/>
</g>
<!-- HealthDES_SimulationEnvironment&#45;&gt;HealthDES_ActivityBase -->
<g id="edge19" class="edge"><title>HealthDES_SimulationEnvironment&#45;&gt;HealthDES_ActivityBase</title><style>.edge>path:hover{stroke-width:8}</style>
<path fill="none" stroke="black" d="M180.991,-192.971C191.244,-213.693 208.711,-246.256 228.405,-271.279 237.121,-282.353 247.986,-293.32 258.009,-302.587"/>
<polygon fill="#d31717" stroke="black" points="255.693,-305.211 265.46,-309.315 260.384,-300.015 255.693,-305.211"/>
</g>
<!-- HealthDES_SimulationEnvironment&#45;&gt;HealthDES_PersonBase -->
<g id="edge20" class="edge"><title>HealthDES_SimulationEnvironment&#45;&gt;HealthDES_PersonBase</title><style>.edge>path:hover{stroke-width:8}</style>
<path fill="none" stroke="black" d="M215.569,-153.678C248.19,-141.15 292.445,-124.154 325.288,-111.54"/>
<polygon fill="#d31717" stroke="black" points="326.579,-114.794 334.659,-107.942 324.069,-108.259 326.579,-114.794"/>
</g>
<!-- HealthDES_SimulationEnvironment&#45;&gt;HealthDES_ResourceBase -->
<g id="edge21" class="edge"><title>HealthDES_SimulationEnvironment&#45;&gt;HealthDES_ResourceBase</title><style>.edge>path:hover{stroke-width:8}</style>
<path fill="none" stroke="black" d="M190.719,-150.958C199.781,-141.724 210.712,-130.585 220.481,-120.631"/>
<polygon fill="#d31717" stroke="black" points="223.168,-122.889 227.674,-113.3 218.172,-117.986 223.168,-122.889"/>
</g>
<!-- HealthDES_SimulationEnvironment&#45;&gt;HealthDES_SimulationBase -->
<g id="edge22" class="edge"><title>HealthDES_SimulationEnvironment&#45;&gt;HealthDES_SimulationBase</title><style>.edge>path:hover{stroke-width:8}</style>
<path fill="none" stroke="black" d="M155.641,-150.559C148.766,-141.803 140.593,-131.392 133.154,-121.916"/>
<polygon fill="#d31717" stroke="black" points="135.784,-119.599 126.856,-113.895 130.279,-123.922 135.784,-119.599"/>
</g>
<!-- HealthDES_StateDict -->
<g id="node12" class="node"><title>HealthDES_StateDict</title><style>.edge>path:hover{stroke-width:8}</style>
<ellipse fill="#c24747" stroke="black" cx="473.405" cy="-485.345" rx="48.1667" ry="21.4286"/>
<text text-anchor="middle" x="473.405" y="-488.345" font-family="Helvetica,sans-Serif" font-size="10.00" fill="#ffffff">HealthDES.</text>
<text text-anchor="middle" x="473.405" y="-477.345" font-family="Helvetica,sans-Serif" font-size="10.00" fill="#ffffff">StateDict</text>
</g>
<!-- HealthDES_StateDict&#45;&gt;HealthDES_AttrActions -->
<g id="edge23" class="edge"><title>HealthDES_StateDict&#45;&gt;HealthDES_AttrActions</title><style>.edge>path:hover{stroke-width:8}</style>
<path fill="none" stroke="black" d="M449.775,-466.811C435.743,-456.4 417.762,-443.058 402.463,-431.706"/>
<polygon fill="#c24747" stroke="black" points="404.398,-428.784 394.282,-425.636 400.227,-434.405 404.398,-428.784"/>
</g>
<!-- main -->
<g id="node13" class="node"><title>main</title><style>.edge>path:hover{stroke-width:8}</style>
<polygon fill="#6b572e" stroke="black" points="183.405,-831.558 180.405,-835.558 159.405,-835.558 156.405,-831.558 129.405,-831.558 129.405,-795.558 183.405,-795.558 183.405,-831.558"/>
<text text-anchor="middle" x="156.405" y="-811.058" font-family="Helvetica,sans-Serif" font-size="10.00" fill="#ffffff">main</text>
</g>
<!-- pkgresources -->
<g id="node17" class="node"><title>pkgresources</title><style>.edge>path:hover{stroke-width:8}</style>
<polygon fill="#2f2fbc" stroke="black" points="193.905,-759.558 190.905,-763.558 169.905,-763.558 166.905,-759.558 118.905,-759.558 118.905,-723.558 193.905,-723.558 193.905,-759.558"/>
<text text-anchor="middle" x="156.405" y="-739.058" font-family="Helvetica,sans-Serif" font-size="10.00" fill="#ffffff">pkgresources</text>
</g>
<!-- main&#45;&gt;pkgresources -->
<g id="edge24" class="edge"><title>main&#45;&gt;pkgresources</title><style>.edge>path:hover{stroke-width:8}</style>
<path fill="none" stroke="black" d="M156.405,-795.255C156.405,-787.541 156.405,-778.271 156.405,-769.671"/>
<polygon fill="#6b572e" stroke="black" points="159.905,-769.663 156.405,-759.663 152.905,-769.663 159.905,-769.663"/>
</g>
<!-- networkx -->
<g id="node14" class="node"><title>networkx</title><style>.edge>path:hover{stroke-width:8}</style>
<polygon fill="#039503" stroke="black" points="255.405,-424.919 252.405,-428.919 231.405,-428.919 228.405,-424.919 199.405,-424.919 199.405,-388.919 255.405,-388.919 255.405,-424.919"/>
<text text-anchor="middle" x="227.405" y="-404.419" font-family="Helvetica,sans-Serif" font-size="10.00" fill="#ffffff">networkx</text>
</g>
<!-- networkx&#45;&gt;HealthDES_Routing -->
<g id="edge25" class="edge"><title>networkx&#45;&gt;HealthDES_Routing</title><style>.edge>path:hover{stroke-width:8}</style>
<path fill="none" stroke="black" d="M223.756,-388.717C220.286,-368.377 217.101,-333.923 228.405,-307.279 233.63,-294.962 242.986,-283.96 252.627,-275.025"/>
<polygon fill="#039503" stroke="black" points="255.093,-277.518 260.346,-268.317 250.502,-272.234 255.093,-277.518"/>
</g>
<!-- numpy -->
<g id="node15" class="node"><title>numpy</title><style>.edge>path:hover{stroke-width:8}</style>
<polygon fill="#039565" stroke="black" points="266.405,-759.558 263.405,-763.558 242.405,-763.558 239.405,-759.558 212.405,-759.558 212.405,-723.558 266.405,-723.558 266.405,-759.558"/>
<text text-anchor="middle" x="239.405" y="-739.058" font-family="Helvetica,sans-Serif" font-size="10.00" fill="#ffffff">numpy</text>
</g>
<!-- numpy&#45;&gt;networkx -->
<g id="edge26" class="edge"><title>numpy&#45;&gt;networkx</title><style>.edge>path:hover{stroke-width:8}</style>
<path fill="none" stroke="black" d="M226.405,-686.558C189.998,-605.364 201.537,-571.783 226.405,-486.345"/>
</g>
<!-- pandas -->
<g id="node16" class="node"><title>pandas</title><style>.edge>path:hover{stroke-width:8}</style>
<polygon fill="#036595" stroke="black" points="160.405,-578.558 157.405,-582.558 136.405,-582.558 133.405,-578.558 106.405,-578.558 106.405,-542.558 160.405,-542.558 160.405,-578.558"/>
<text text-anchor="middle" x="133.405" y="-558.058" font-family="Helvetica,sans-Serif" font-size="10.00" fill="#ffffff">pandas</text>
</g>
<!-- numpy&#45;&gt;pandas -->
<g id="edge27" class="edge"><title>numpy&#45;&gt;pandas</title><style>.edge>path:hover{stroke-width:8}</style>
<path fill="none" stroke="black" d="M226.405,-686.558C209.556,-648.983 169.215,-670.191 150.405,-633.558"/>
<path fill="none" stroke="black" d="M236.811,-723.332C234.818,-712.704 231.522,-698.97 226.405,-687.558"/>
</g>
<!-- pandas&#45;&gt;HealthDES_DataCollection -->
<g id="edge28" class="edge"><title>pandas&#45;&gt;HealthDES_DataCollection</title><style>.edge>path:hover{stroke-width:8}</style>
<path fill="none" stroke="black" d="M70.4049,-327.492C66.6631,-312.734 66.2757,-295.85 66.9874,-281.712"/>
<polygon fill="#036595" stroke="black" points="70.4942,-281.739 67.7086,-271.517 63.5117,-281.245 70.4942,-281.739"/>
</g>
<!-- pandas&#45;&gt;HealthDES_SimulationBase -->
<g id="edge29" class="edge"><title>pandas&#45;&gt;HealthDES_SimulationBase</title><style>.edge>path:hover{stroke-width:8}</style>
<path fill="none" stroke="black" d="M70.4049,-327.492C60.9355,-290.143 20.5602,-306.26 4.40491,-271.279 -4.0347,-253.005 1.63877,-162.667 9.40491,-150.426 20.5714,-132.827 39.2838,-120.286 57.6544,-111.584"/>
<polygon fill="#036595" stroke="black" points="59.1682,-114.742 66.8983,-107.496 56.337,-108.34 59.1682,-114.742"/>
<path fill="none" stroke="black" d="M127.915,-542.422C115.927,-504.446 87.1436,-410.185 70.4049,-329.492"/>
</g>
<!-- pandas&#45;&gt;networkx -->
<g id="edge30" class="edge"><title>pandas&#45;&gt;networkx</title><style>.edge>path:hover{stroke-width:8}</style>
<path fill="none" stroke="black" d="M160.79,-548.861C184.872,-537.578 217.446,-517.124 226.405,-486.345"/>
<path fill="none" stroke="black" d="M226.405,-484.345C231.03,-468.454 231.386,-449.906 230.534,-435.062"/>
<polygon fill="#036595" stroke="black" points="234.016,-434.694 229.745,-424.999 227.038,-435.242 234.016,-434.694"/>
</g>
<!-- pkgresources&#45;&gt;pandas -->
<g id="edge31" class="edge"><title>pkgresources&#45;&gt;pandas</title><style>.edge>path:hover{stroke-width:8}</style>
<path fill="none" stroke="black" d="M150.405,-631.558C143.599,-618.303 139.445,-602.223 136.95,-588.819"/>
<polygon fill="#2f2fbc" stroke="black" points="140.369,-588.043 135.285,-578.748 133.463,-589.185 140.369,-588.043"/>
<path fill="none" stroke="black" d="M169.405,-686.558C172.328,-661.706 161.835,-655.819 150.405,-633.558"/>
<path fill="none" stroke="black" d="M161.842,-723.091C164.738,-712.852 167.988,-699.602 169.405,-687.558"/>
</g>
<!-- simpy -->
<g id="node18" class="node"><title>simpy</title><style>.edge>path:hover{stroke-width:8}</style>
<polygon fill="#6b049f" stroke="black" points="198.405,-503.345 195.405,-507.345 174.405,-507.345 171.405,-503.345 144.405,-503.345 144.405,-467.345 198.405,-467.345 198.405,-503.345"/>
<text text-anchor="middle" x="171.405" y="-482.845" font-family="Helvetica,sans-Serif" font-size="10.00" fill="#ffffff">simpy</text>
</g>
<!-- pkgresources&#45;&gt;simpy -->
<g id="edge32" class="edge"><title>pkgresources&#45;&gt;simpy</title><style>.edge>path:hover{stroke-width:8}</style>
<path fill="none" stroke="black" d="M169.405,-686.558C176.611,-625.287 174.787,-552.742 172.99,-514.004"/>
<polygon fill="#2f2fbc" stroke="black" points="176.463,-513.377 172.467,-503.564 169.472,-513.727 176.463,-513.377"/>
</g>
<!-- simpy&#45;&gt;HealthDES_ActivityBase -->
<g id="edge33" class="edge"><title>simpy&#45;&gt;HealthDES_ActivityBase</title><style>.edge>path:hover{stroke-width:8}</style>
<path fill="none" stroke="black" d="M171.405,-405.919C181.231,-376.107 211.05,-356.854 237.993,-345.129"/>
<polygon fill="#6b049f" stroke="black" points="239.437,-348.319 247.365,-341.29 236.785,-341.841 239.437,-348.319"/>
</g>
<!-- simpy&#45;&gt;HealthDES_DataCollection -->
<g id="edge34" class="edge"><title>simpy&#45;&gt;HealthDES_DataCollection</title><style>.edge>path:hover{stroke-width:8}</style>
<path fill="none" stroke="black" d="M168.399,-467.165C166.325,-451.349 164.967,-427.451 171.405,-407.919"/>
<path fill="none" stroke="black" d="M171.405,-405.919C182.038,-373.659 180.989,-362.08 171.405,-329.492"/>
<path fill="none" stroke="black" d="M171.405,-327.492C163.798,-301.628 140.31,-283.007 117.898,-270.625"/>
<polygon fill="#6b049f" stroke="black" points="119.227,-267.371 108.74,-265.86 115.996,-273.581 119.227,-267.371"/>
</g>
<!-- simpy&#45;&gt;HealthDES_PersonBase -->
<g id="edge35" class="edge"><title>simpy&#45;&gt;HealthDES_PersonBase</title><style>.edge>path:hover{stroke-width:8}</style>
<path fill="none" stroke="black" d="M171.405,-249.066C173.119,-201.558 224.467,-221.499 262.405,-192.853 278.636,-180.597 316.841,-145.057 343.165,-120.172"/>
<polygon fill="#6b049f" stroke="black" points="345.728,-122.564 350.581,-113.146 340.914,-117.483 345.728,-122.564"/>
</g>
<!-- simpy&#45;&gt;HealthDES_SimulationBase -->
<g id="edge36" class="edge"><title>simpy&#45;&gt;HealthDES_SimulationBase</title><style>.edge>path:hover{stroke-width:8}</style>
<path fill="none" stroke="black" d="M171.405,-249.066C171.405,-201.527 103.559,-234.372 80.4049,-192.853 68.0669,-170.729 78.7511,-143.023 90.8251,-122.612"/>
<polygon fill="#6b049f" stroke="black" points="93.8366,-124.398 96.2065,-114.071 87.9142,-120.666 93.8366,-124.398"/>
<path fill="none" stroke="black" d="M171.405,-327.492C161.821,-294.905 170.18,-285.011 171.405,-251.066"/>
</g>
<!-- simpy&#45;&gt;HealthDES_SimulationEnvironment -->
<g id="edge37" class="edge"><title>simpy&#45;&gt;HealthDES_SimulationEnvironment</title><style>.edge>path:hover{stroke-width:8}</style>
<path fill="none" stroke="black" d="M171.405,-249.066C171.405,-233.946 171.405,-217.144 171.405,-203.153"/>
<polygon fill="#6b049f" stroke="black" points="174.905,-203.076 171.405,-193.076 167.905,-203.076 174.905,-203.076"/>
</g>
<!-- yaml -->
<g id="node19" class="node"><title>yaml</title><style>.edge>path:hover{stroke-width:8}</style>
<polygon fill="#95b653" stroke="black" points="576.405,-650.558 573.405,-654.558 552.405,-654.558 549.405,-650.558 522.405,-650.558 522.405,-614.558 576.405,-614.558 576.405,-650.558"/>
<text text-anchor="middle" x="549.405" y="-630.058" font-family="Helvetica,sans-Serif" font-size="10.00" fill="#000000">yaml</text>
</g>
<!-- yaml&#45;&gt;HealthDES_ActivityBase -->
<g id="edge38" class="edge"><title>yaml&#45;&gt;HealthDES_ActivityBase</title><style>.edge>path:hover{stroke-width:8}</style>
<path fill="none" stroke="black" d="M283.405,-484.345C266.002,-468.077 274.603,-400.159 281.55,-359.873"/>
<polygon fill="#95b653" stroke="black" points="285.038,-360.251 283.353,-349.791 278.147,-359.019 285.038,-360.251"/>
</g>
<!-- yaml&#45;&gt;HealthDES_PersonBase -->
<g id="edge39" class="edge"><title>yaml&#45;&gt;HealthDES_PersonBase</title><style>.edge>path:hover{stroke-width:8}</style>
<path fill="none" stroke="black" d="M549.405,-559.558C527.616,-522.205 546.658,-504.206 530.405,-464.132 507.643,-408.008 482.714,-404.257 456.405,-349.706 418.807,-271.748 390.651,-173.095 377.916,-124.328"/>
<polygon fill="#95b653" stroke="black" points="381.249,-123.237 375.364,-114.427 374.471,-124.984 381.249,-123.237"/>
</g>
<!-- yaml&#45;&gt;networkx -->
<g id="edge40" class="edge"><title>yaml&#45;&gt;networkx</title><style>.edge>path:hover{stroke-width:8}</style>
<path fill="none" stroke="black" d="M549.405,-559.558C492.833,-462.576 400.182,-561.746 302.405,-506.558 291.668,-500.498 292.412,-494.765 283.405,-486.345"/>
<path fill="none" stroke="black" d="M283.405,-484.345C267.534,-469.509 253.133,-449.638 242.91,-433.877"/>
<polygon fill="#95b653" stroke="black" points="245.693,-431.728 237.395,-425.141 239.774,-435.465 245.693,-431.728"/>
<path fill="none" stroke="black" d="M553.955,-614.482C556.944,-599.486 558.774,-577.619 549.405,-561.558"/>
</g>
</g>
</svg>
