<?xml version="1.0" encoding="UTF-8" standalone="no"?>
<!DOCTYPE svg PUBLIC "-//W3C//DTD SVG 1.1//EN"
 "http://www.w3.org/Graphics/SVG/1.1/DTD/svg11.dtd">
<!-- Generated by graphviz version 2.38.0 (20140413.2041)
 -->
<!-- Title: G Pages: 1 -->
<svg width="783pt" height="713pt"
 viewBox="0.00 0.00 782.53 713.28" xmlns="http://www.w3.org/2000/svg" xmlns:xlink="http://www.w3.org/1999/xlink">
<g id="graph0" class="graph" transform="scale(1 1) rotate(0) translate(4 709.279)">
<title>G</title><style>.edge>path:hover{stroke-width:8}</style>
<polygon fill="white" stroke="none" points="-4,4 -4,-709.279 778.53,-709.279 778.53,4 -4,4"/>
<!-- HealthDES -->
<g id="node1" class="node"><title>HealthDES</title><style>.edge>path:hover{stroke-width:8}</style>
<ellipse fill="#a50808" stroke="black" cx="402.083" cy="-18" rx="38.0276" ry="18"/>
<text text-anchor="middle" x="402.083" y="-15.5" font-family="Helvetica,sans-Serif" font-size="10.00" fill="#ffffff">HealthDES</text>
</g>
<!-- HealthDES_ActivityBase -->
<g id="node2" class="node"><title>HealthDES_ActivityBase</title><style>.edge>path:hover{stroke-width:8}</style>
<ellipse fill="#b03a3a" stroke="black" cx="597.083" cy="-93.2132" rx="50.41" ry="21.4286"/>
<text text-anchor="middle" x="597.083" y="-96.2132" font-family="Helvetica,sans-Serif" font-size="10.00" fill="#ffffff">HealthDES.</text>
<text text-anchor="middle" x="597.083" y="-85.2132" font-family="Helvetica,sans-Serif" font-size="10.00" fill="#ffffff">ActivityBase</text>
</g>
<!-- HealthDES_ActivityBase&#45;&gt;HealthDES -->
<g id="edge1" class="edge"><title>HealthDES_ActivityBase&#45;&gt;HealthDES</title><style>.edge>path:hover{stroke-width:8}</style>
<path fill="none" stroke="black" d="M560.405,-78.4424C526.265,-65.6242 475.558,-46.5863 440.782,-33.5296"/>
<polygon fill="#b03a3a" stroke="black" points="441.573,-30.088 430.981,-29.8496 439.112,-36.6413 441.573,-30.088"/>
</g>
<!-- HealthDES_AttrActions -->
<g id="node3" class="node"><title>HealthDES_AttrActions</title><style>.edge>path:hover{stroke-width:8}</style>
<ellipse fill="#d02424" stroke="black" cx="150.083" cy="-171.64" rx="48.1667" ry="21.4286"/>
<text text-anchor="middle" x="150.083" y="-174.64" font-family="Helvetica,sans-Serif" font-size="10.00" fill="#ffffff">HealthDES.</text>
<text text-anchor="middle" x="150.083" y="-163.64" font-family="Helvetica,sans-Serif" font-size="10.00" fill="#ffffff">AttrActions</text>
</g>
<!-- HealthDES_AttrActions&#45;&gt;HealthDES -->
<g id="edge2" class="edge"><title>HealthDES_AttrActions&#45;&gt;HealthDES</title><style>.edge>path:hover{stroke-width:8}</style>
<path fill="none" stroke="black" d="M226.083,-92.2132C253.637,-48.6859 312.757,-31.0234 354.866,-23.8646"/>
<polygon fill="#d02424" stroke="black" points="355.567,-27.2978 364.908,-22.2995 354.489,-20.3813 355.567,-27.2978"/>
<path fill="none" stroke="black" d="M172.72,-152.627C189.426,-138.316 211.671,-116.98 226.083,-94.2132"/>
</g>
<!-- HealthDES_PersonBase -->
<g id="node8" class="node"><title>HealthDES_PersonBase</title><style>.edge>path:hover{stroke-width:8}</style>
<ellipse fill="#993333" stroke="black" cx="479.083" cy="-93.2132" rx="49.4949" ry="21.4286"/>
<text text-anchor="middle" x="479.083" y="-96.2132" font-family="Helvetica,sans-Serif" font-size="10.00" fill="#ffffff">HealthDES.</text>
<text text-anchor="middle" x="479.083" y="-85.2132" font-family="Helvetica,sans-Serif" font-size="10.00" fill="#ffffff">PersonBase</text>
</g>
<!-- HealthDES_AttrActions&#45;&gt;HealthDES_PersonBase -->
<g id="edge3" class="edge"><title>HealthDES_AttrActions&#45;&gt;HealthDES_PersonBase</title><style>.edge>path:hover{stroke-width:8}</style>
<path fill="none" stroke="black" d="M191.751,-160.96C251.412,-147.101 361.153,-121.608 426.381,-106.456"/>
<polygon fill="#d02424" stroke="black" points="427.504,-109.788 436.453,-104.116 425.92,-102.97 427.504,-109.788"/>
</g>
<!-- HealthDES_ResourceBase -->
<g id="node9" class="node"><title>HealthDES_ResourceBase</title><style>.edge>path:hover{stroke-width:8}</style>
<ellipse fill="#c04040" stroke="black" cx="141.083" cy="-93.2132" rx="56.6372" ry="21.4286"/>
<text text-anchor="middle" x="141.083" y="-96.2132" font-family="Helvetica,sans-Serif" font-size="10.00" fill="#ffffff">HealthDES.</text>
<text text-anchor="middle" x="141.083" y="-85.2132" font-family="Helvetica,sans-Serif" font-size="10.00" fill="#ffffff">ResourceBase</text>
</g>
<!-- HealthDES_AttrActions&#45;&gt;HealthDES_ResourceBase -->
<g id="edge4" class="edge"><title>HealthDES_AttrActions&#45;&gt;HealthDES_ResourceBase</title><style>.edge>path:hover{stroke-width:8}</style>
<path fill="none" stroke="black" d="M147.671,-150.159C146.746,-142.3 145.669,-133.156 144.658,-124.566"/>
<polygon fill="#d02424" stroke="black" points="148.116,-124.008 143.471,-114.486 141.164,-124.826 148.116,-124.008"/>
</g>
<!-- HealthDES_AttrDict -->
<g id="node4" class="node"><title>HealthDES_AttrDict</title><style>.edge>path:hover{stroke-width:8}</style>
<ellipse fill="#c24747" stroke="black" cx="162.083" cy="-250.066" rx="48.1667" ry="21.4286"/>
<text text-anchor="middle" x="162.083" y="-253.066" font-family="Helvetica,sans-Serif" font-size="10.00" fill="#ffffff">HealthDES.</text>
<text text-anchor="middle" x="162.083" y="-242.066" font-family="Helvetica,sans-Serif" font-size="10.00" fill="#ffffff">AttrDict</text>
</g>
<!-- HealthDES_AttrDict&#45;&gt;HealthDES_AttrActions -->
<g id="edge5" class="edge"><title>HealthDES_AttrDict&#45;&gt;HealthDES_AttrActions</title><style>.edge>path:hover{stroke-width:8}</style>
<path fill="none" stroke="black" d="M158.867,-228.585C157.634,-220.726 156.198,-211.582 154.849,-202.992"/>
<polygon fill="#c24747" stroke="black" points="158.275,-202.248 153.266,-192.912 151.36,-203.334 158.275,-202.248"/>
</g>
<!-- HealthDES_Check -->
<g id="node5" class="node"><title>HealthDES_Check</title><style>.edge>path:hover{stroke-width:8}</style>
<ellipse fill="#ce3b3b" stroke="black" cx="288.083" cy="-250.066" rx="48.1667" ry="21.4286"/>
<text text-anchor="middle" x="288.083" y="-253.066" font-family="Helvetica,sans-Serif" font-size="10.00" fill="#ffffff">HealthDES.</text>
<text text-anchor="middle" x="288.083" y="-242.066" font-family="Helvetica,sans-Serif" font-size="10.00" fill="#ffffff">Check</text>
</g>
<!-- HealthDES_Check&#45;&gt;HealthDES -->
<g id="edge6" class="edge"><title>HealthDES_Check&#45;&gt;HealthDES</title><style>.edge>path:hover{stroke-width:8}</style>
<path fill="none" stroke="black" d="M269.809,-230.385C242.567,-200.191 197.428,-139.48 226.083,-94.2132"/>
</g>
<!-- HealthDES_DataCollection -->
<g id="node6" class="node"><title>HealthDES_DataCollection</title><style>.edge>path:hover{stroke-width:8}</style>
<ellipse fill="#c43131" stroke="black" cx="311.083" cy="-171.64" rx="56.6372" ry="21.4286"/>
<text text-anchor="middle" x="311.083" y="-174.64" font-family="Helvetica,sans-Serif" font-size="10.00" fill="#ffffff">HealthDES.</text>
<text text-anchor="middle" x="311.083" y="-163.64" font-family="Helvetica,sans-Serif" font-size="10.00" fill="#ffffff">DataCollection</text>
</g>
<!-- HealthDES_Check&#45;&gt;HealthDES_DataCollection -->
<g id="edge7" class="edge"><title>HealthDES_Check&#45;&gt;HealthDES_DataCollection</title><style>.edge>path:hover{stroke-width:8}</style>
<path fill="none" stroke="black" d="M294.126,-228.986C296.563,-220.888 299.426,-211.377 302.098,-202.498"/>
<polygon fill="#ce3b3b" stroke="black" points="305.47,-203.435 305.001,-192.851 298.767,-201.418 305.47,-203.435"/>
</g>
<!-- HealthDES_DataCollection&#45;&gt;HealthDES -->
<g id="edge8" class="edge"><title>HealthDES_DataCollection&#45;&gt;HealthDES</title><style>.edge>path:hover{stroke-width:8}</style>
<path fill="none" stroke="black" d="M272.989,-155.938C243.376,-142.156 209.843,-119.868 226.083,-94.2132"/>
</g>
<!-- HealthDES_SimulationBase -->
<g id="node11" class="node"><title>HealthDES_SimulationBase</title><style>.edge>path:hover{stroke-width:8}</style>
<ellipse fill="#a13535" stroke="black" cx="314.083" cy="-93.2132" rx="60.2083" ry="21.4286"/>
<text text-anchor="middle" x="314.083" y="-96.2132" font-family="Helvetica,sans-Serif" font-size="10.00" fill="#ffffff">HealthDES.</text>
<text text-anchor="middle" x="314.083" y="-85.2132" font-family="Helvetica,sans-Serif" font-size="10.00" fill="#ffffff">SimulationBase</text>
</g>
<!-- HealthDES_DataCollection&#45;&gt;HealthDES_SimulationBase -->
<g id="edge9" class="edge"><title>HealthDES_DataCollection&#45;&gt;HealthDES_SimulationBase</title><style>.edge>path:hover{stroke-width:8}</style>
<path fill="none" stroke="black" d="M311.887,-150.159C312.196,-142.3 312.555,-133.156 312.892,-124.566"/>
<polygon fill="#c43131" stroke="black" points="316.392,-124.615 313.287,-114.486 309.398,-124.341 316.392,-124.615"/>
</g>
<!-- HealthDES_DecisionBase -->
<g id="node7" class="node"><title>HealthDES_DecisionBase</title><style>.edge>path:hover{stroke-width:8}</style>
<ellipse fill="#c04040" stroke="black" cx="720.083" cy="-93.2132" rx="54.3945" ry="21.4286"/>
<text text-anchor="middle" x="720.083" y="-96.2132" font-family="Helvetica,sans-Serif" font-size="10.00" fill="#ffffff">HealthDES.</text>
<text text-anchor="middle" x="720.083" y="-85.2132" font-family="Helvetica,sans-Serif" font-size="10.00" fill="#ffffff">DecisionBase</text>
</g>
<!-- HealthDES_DecisionBase&#45;&gt;HealthDES -->
<g id="edge10" class="edge"><title>HealthDES_DecisionBase&#45;&gt;HealthDES</title><style>.edge>path:hover{stroke-width:8}</style>
<path fill="none" stroke="black" d="M679.634,-78.7646C671.858,-76.3708 663.749,-74.0049 656.083,-72 583.713,-53.072 498.355,-36.3991 447.311,-27.02"/>
<polygon fill="#c04040" stroke="black" points="447.731,-23.5389 437.265,-25.1871 446.474,-30.4253 447.731,-23.5389"/>
</g>
<!-- HealthDES_PersonBase&#45;&gt;HealthDES -->
<g id="edge11" class="edge"><title>HealthDES_PersonBase&#45;&gt;HealthDES</title><style>.edge>path:hover{stroke-width:8}</style>
<path fill="none" stroke="black" d="M459.254,-73.359C448.999,-63.6083 436.412,-51.6405 425.662,-41.4187"/>
<polygon fill="#993333" stroke="black" points="427.876,-38.6951 418.218,-34.3409 423.053,-43.768 427.876,-38.6951"/>
</g>
<!-- HealthDES_ResourceBase&#45;&gt;HealthDES -->
<g id="edge12" class="edge"><title>HealthDES_ResourceBase&#45;&gt;HealthDES</title><style>.edge>path:hover{stroke-width:8}</style>
<path fill="none" stroke="black" d="M185.007,-79.669C193.963,-77.1222 203.325,-74.4683 212.083,-72 262.916,-57.6744 321.456,-41.3747 359.97,-30.6783"/>
<polygon fill="#c04040" stroke="black" points="361.096,-33.9981 369.795,-27.9504 359.223,-27.2532 361.096,-33.9981"/>
</g>
<!-- HealthDES_Routing -->
<g id="node10" class="node"><title>HealthDES_Routing</title><style>.edge>path:hover{stroke-width:8}</style>
<ellipse fill="#d02424" stroke="black" cx="472.083" cy="-171.64" rx="48.1667" ry="21.4286"/>
<text text-anchor="middle" x="472.083" y="-174.64" font-family="Helvetica,sans-Serif" font-size="10.00" fill="#ffffff">HealthDES.</text>
<text text-anchor="middle" x="472.083" y="-163.64" font-family="Helvetica,sans-Serif" font-size="10.00" fill="#ffffff">Routing</text>
</g>
<!-- HealthDES_Routing&#45;&gt;HealthDES -->
<g id="edge13" class="edge"><title>HealthDES_Routing&#45;&gt;HealthDES</title><style>.edge>path:hover{stroke-width:8}</style>
<path fill="none" stroke="black" d="M450.737,-152.359C440.238,-142.223 428.316,-128.784 421.083,-114.426 410.31,-93.042 405.642,-66.0818 403.621,-46.277"/>
<polygon fill="#d02424" stroke="black" points="407.089,-45.7561 402.749,-36.0913 400.115,-46.3535 407.089,-45.7561"/>
</g>
<!-- HealthDES_Routing&#45;&gt;HealthDES_PersonBase -->
<g id="edge14" class="edge"><title>HealthDES_Routing&#45;&gt;HealthDES_PersonBase</title><style>.edge>path:hover{stroke-width:8}</style>
<path fill="none" stroke="black" d="M473.959,-150.159C474.679,-142.3 475.516,-133.156 476.303,-124.566"/>
<polygon fill="#d02424" stroke="black" points="479.8,-124.763 477.226,-114.486 472.829,-124.125 479.8,-124.763"/>
</g>
<!-- HealthDES_Routing&#45;&gt;HealthDES_SimulationBase -->
<g id="edge15" class="edge"><title>HealthDES_Routing&#45;&gt;HealthDES_SimulationBase</title><style>.edge>path:hover{stroke-width:8}</style>
<path fill="none" stroke="black" d="M440.489,-155.357C416.748,-143.874 383.944,-128.005 357.703,-115.312"/>
<polygon fill="#d02424" stroke="black" points="358.887,-111.997 348.361,-110.794 355.839,-118.299 358.887,-111.997"/>
</g>
<!-- HealthDES_SimulationBase&#45;&gt;HealthDES -->
<g id="edge16" class="edge"><title>HealthDES_SimulationBase&#45;&gt;HealthDES</title><style>.edge>path:hover{stroke-width:8}</style>
<path fill="none" stroke="black" d="M336.745,-73.359C348.777,-63.3495 363.616,-51.0035 376.111,-40.6084"/>
<polygon fill="#a13535" stroke="black" points="378.481,-43.1895 383.93,-34.1032 374.004,-37.8083 378.481,-43.1895"/>
</g>
<!-- HealthDES_StateDict -->
<g id="node12" class="node"><title>HealthDES_StateDict</title><style>.edge>path:hover{stroke-width:8}</style>
<ellipse fill="#c24747" stroke="black" cx="48.0833" cy="-250.066" rx="48.1667" ry="21.4286"/>
<text text-anchor="middle" x="48.0833" y="-253.066" font-family="Helvetica,sans-Serif" font-size="10.00" fill="#ffffff">HealthDES.</text>
<text text-anchor="middle" x="48.0833" y="-242.066" font-family="Helvetica,sans-Serif" font-size="10.00" fill="#ffffff">StateDict</text>
</g>
<!-- HealthDES_StateDict&#45;&gt;HealthDES_AttrActions -->
<g id="edge17" class="edge"><title>HealthDES_StateDict&#45;&gt;HealthDES_AttrActions</title><style>.edge>path:hover{stroke-width:8}</style>
<path fill="none" stroke="black" d="M71.4841,-231.532C85.3794,-221.121 103.186,-207.779 118.336,-196.427"/>
<polygon fill="#c24747" stroke="black" points="120.534,-199.154 126.438,-190.356 116.337,-193.552 120.534,-199.154"/>
</g>
<!-- main -->
<g id="node13" class="node"><title>main</title><style>.edge>path:hover{stroke-width:8}</style>
<polygon fill="#6b572e" stroke="black" points="549.083,-705.279 546.083,-709.279 525.083,-709.279 522.083,-705.279 495.083,-705.279 495.083,-669.279 549.083,-669.279 549.083,-705.279"/>
<text text-anchor="middle" x="522.083" y="-684.779" font-family="Helvetica,sans-Serif" font-size="10.00" fill="#ffffff">main</text>
</g>
<!-- pkgresources -->
<g id="node17" class="node"><title>pkgresources</title><style>.edge>path:hover{stroke-width:8}</style>
<polygon fill="#2f2fbc" stroke="black" points="559.583,-633.279 556.583,-637.279 535.583,-637.279 532.583,-633.279 484.583,-633.279 484.583,-597.279 559.583,-597.279 559.583,-633.279"/>
<text text-anchor="middle" x="522.083" y="-612.779" font-family="Helvetica,sans-Serif" font-size="10.00" fill="#ffffff">pkgresources</text>
</g>
<!-- main&#45;&gt;pkgresources -->
<g id="edge18" class="edge"><title>main&#45;&gt;pkgresources</title><style>.edge>path:hover{stroke-width:8}</style>
<path fill="none" stroke="black" d="M522.083,-668.976C522.083,-661.262 522.083,-651.992 522.083,-643.392"/>
<polygon fill="#6b572e" stroke="black" points="525.583,-643.384 522.083,-633.384 518.583,-643.384 525.583,-643.384"/>
</g>
<!-- networkx -->
<g id="node14" class="node"><title>networkx</title><style>.edge>path:hover{stroke-width:8}</style>
<polygon fill="#039503" stroke="black" points="480.083,-343.279 477.083,-347.279 456.083,-347.279 453.083,-343.279 424.083,-343.279 424.083,-307.279 480.083,-307.279 480.083,-343.279"/>
<text text-anchor="middle" x="452.083" y="-322.779" font-family="Helvetica,sans-Serif" font-size="10.00" fill="#ffffff">networkx</text>
</g>
<!-- networkx&#45;&gt;HealthDES_Routing -->
<g id="edge19" class="edge"><title>networkx&#45;&gt;HealthDES_Routing</title><style>.edge>path:hover{stroke-width:8}</style>
<path fill="none" stroke="black" d="M454.339,-307.179C457.661,-281.988 463.923,-234.513 468.049,-203.229"/>
<polygon fill="#039503" stroke="black" points="471.521,-203.668 469.359,-193.296 464.581,-202.753 471.521,-203.668"/>
</g>
<!-- numpy -->
<g id="node15" class="node"><title>numpy</title><style>.edge>path:hover{stroke-width:8}</style>
<polygon fill="#039565" stroke="black" points="466.083,-633.279 463.083,-637.279 442.083,-637.279 439.083,-633.279 412.083,-633.279 412.083,-597.279 466.083,-597.279 466.083,-633.279"/>
<text text-anchor="middle" x="439.083" y="-612.779" font-family="Helvetica,sans-Serif" font-size="10.00" fill="#ffffff">numpy</text>
</g>
<!-- numpy&#45;&gt;networkx -->
<g id="edge20" class="edge"><title>numpy&#45;&gt;networkx</title><style>.edge>path:hover{stroke-width:8}</style>
<path fill="none" stroke="black" d="M452.083,-505.279C442.299,-452.242 445.781,-388.851 449.038,-353.519"/>
<polygon fill="#039565" stroke="black" points="452.528,-353.792 450.027,-343.497 445.562,-353.105 452.528,-353.792"/>
</g>
<!-- pandas -->
<g id="node16" class="node"><title>pandas</title><style>.edge>path:hover{stroke-width:8}</style>
<polygon fill="#036595" stroke="black" points="424.083,-452.279 421.083,-456.279 400.083,-456.279 397.083,-452.279 370.083,-452.279 370.083,-416.279 424.083,-416.279 424.083,-452.279"/>
<text text-anchor="middle" x="397.083" y="-431.779" font-family="Helvetica,sans-Serif" font-size="10.00" fill="#ffffff">pandas</text>
</g>
<!-- numpy&#45;&gt;pandas -->
<g id="edge21" class="edge"><title>numpy&#45;&gt;pandas</title><style>.edge>path:hover{stroke-width:8}</style>
<path fill="none" stroke="black" d="M452.083,-505.279C448.856,-487.784 437.411,-471.869 425.791,-459.651"/>
<polygon fill="#039565" stroke="black" points="428.175,-457.086 418.605,-452.54 423.251,-462.062 428.175,-457.086"/>
<path fill="none" stroke="black" d="M444.351,-597.132C450.138,-575.918 457.888,-538.747 452.083,-507.279"/>
</g>
<!-- pandas&#45;&gt;HealthDES_DataCollection -->
<g id="edge22" class="edge"><title>pandas&#45;&gt;HealthDES_DataCollection</title><style>.edge>path:hover{stroke-width:8}</style>
<path fill="none" stroke="black" d="M396.083,-379.279C408.97,-323.772 410.088,-306.302 396.083,-251.066"/>
<path fill="none" stroke="black" d="M394.362,-415.803C393.317,-405.329 393.011,-391.842 396.083,-380.279"/>
<path fill="none" stroke="black" d="M396.083,-249.066C388.835,-226.27 369.568,-207.997 351.207,-195.042"/>
<polygon fill="#036595" stroke="black" points="353.137,-192.122 342.881,-189.466 349.242,-197.939 353.137,-192.122"/>
</g>
<!-- pandas&#45;&gt;HealthDES_SimulationBase -->
<g id="edge23" class="edge"><title>pandas&#45;&gt;HealthDES_SimulationBase</title><style>.edge>path:hover{stroke-width:8}</style>
<path fill="none" stroke="black" d="M396.083,-249.066C385.791,-216.696 418.324,-198.313 396.083,-172.64"/>
<path fill="none" stroke="black" d="M396.083,-170.64C380.315,-152.437 360.63,-133.974 344.5,-119.756"/>
<polygon fill="#036595" stroke="black" points="346.739,-117.065 336.899,-113.136 342.142,-122.343 346.739,-117.065"/>
</g>
<!-- pandas&#45;&gt;networkx -->
<g id="edge24" class="edge"><title>pandas&#45;&gt;networkx</title><style>.edge>path:hover{stroke-width:8}</style>
<path fill="none" stroke="black" d="M396.083,-379.279C398.874,-367.259 406.917,-357.023 416.067,-348.845"/>
<polygon fill="#036595" stroke="black" points="418.366,-351.486 423.923,-342.465 413.954,-346.052 418.366,-351.486"/>
</g>
<!-- pkgresources&#45;&gt;pandas -->
<g id="edge25" class="edge"><title>pkgresources&#45;&gt;pandas</title><style>.edge>path:hover{stroke-width:8}</style>
<path fill="none" stroke="black" d="M508.083,-505.279C497.206,-473.352 461.788,-454.942 433.85,-445.092"/>
<polygon fill="#2f2fbc" stroke="black" points="434.926,-441.762 424.333,-441.957 432.736,-448.41 434.926,-441.762"/>
<path fill="none" stroke="black" d="M521.907,-597.131C521.223,-575.598 518.475,-537.781 508.083,-507.279"/>
</g>
<!-- simpy -->
<g id="node18" class="node"><title>simpy</title><style>.edge>path:hover{stroke-width:8}</style>
<polygon fill="#6b049f" stroke="black" points="535.083,-268.066 532.083,-272.066 511.083,-272.066 508.083,-268.066 481.083,-268.066 481.083,-232.066 535.083,-232.066 535.083,-268.066"/>
<text text-anchor="middle" x="508.083" y="-247.566" font-family="Helvetica,sans-Serif" font-size="10.00" fill="#ffffff">simpy</text>
</g>
<!-- pkgresources&#45;&gt;simpy -->
<g id="edge26" class="edge"><title>pkgresources&#45;&gt;simpy</title><style>.edge>path:hover{stroke-width:8}</style>
<path fill="none" stroke="black" d="M508.083,-505.279C472.68,-429.432 489.733,-326.442 500.95,-278.155"/>
<polygon fill="#2f2fbc" stroke="black" points="504.415,-278.716 503.37,-268.173 497.612,-277.067 504.415,-278.716"/>
</g>
<!-- simpy&#45;&gt;HealthDES_ActivityBase -->
<g id="edge27" class="edge"><title>simpy&#45;&gt;HealthDES_ActivityBase</title><style>.edge>path:hover{stroke-width:8}</style>
<path fill="none" stroke="black" d="M554.083,-170.64C556.989,-153.145 566.153,-135.748 575.279,-121.982"/>
<polygon fill="#6b049f" stroke="black" points="578.349,-123.698 581.204,-113.495 572.61,-119.691 578.349,-123.698"/>
</g>
<!-- simpy&#45;&gt;HealthDES_PersonBase -->
<g id="edge28" class="edge"><title>simpy&#45;&gt;HealthDES_PersonBase</title><style>.edge>path:hover{stroke-width:8}</style>
<path fill="none" stroke="black" d="M554.083,-170.64C557.957,-147.316 539.472,-128.304 519.887,-115.076"/>
<polygon fill="#6b049f" stroke="black" points="521.514,-111.964 511.189,-109.589 517.779,-117.885 521.514,-111.964"/>
<path fill="none" stroke="black" d="M523.731,-231.809C535.54,-217.261 550.328,-195.25 554.083,-172.64"/>
</g>
<!-- simpy&#45;&gt;HealthDES_SimulationBase -->
<g id="edge29" class="edge"><title>simpy&#45;&gt;HealthDES_SimulationBase</title><style>.edge>path:hover{stroke-width:8}</style>
<path fill="none" stroke="black" d="M480.754,-235.13C461.509,-224.716 435.621,-209.461 415.083,-192.853 405.496,-185.1 404.156,-181.959 396.083,-172.64"/>
</g>
<!-- yaml -->
<g id="node19" class="node"><title>yaml</title><style>.edge>path:hover{stroke-width:8}</style>
<polygon fill="#95b653" stroke="black" points="624.083,-524.279 621.083,-528.279 600.083,-528.279 597.083,-524.279 570.083,-524.279 570.083,-488.279 624.083,-488.279 624.083,-524.279"/>
<text text-anchor="middle" x="597.083" y="-503.779" font-family="Helvetica,sans-Serif" font-size="10.00" fill="#000000">yaml</text>
</g>
<!-- yaml&#45;&gt;HealthDES_ActivityBase -->
<g id="edge30" class="edge"><title>yaml&#45;&gt;HealthDES_ActivityBase</title><style>.edge>path:hover{stroke-width:8}</style>
<path fill="none" stroke="black" d="M597.083,-170.64C592.224,-156.099 591.752,-139.114 592.696,-124.854"/>
<polygon fill="#95b653" stroke="black" points="596.211,-124.846 593.644,-114.567 589.241,-124.203 596.211,-124.846"/>
</g>
<!-- yaml&#45;&gt;HealthDES_PersonBase -->
<g id="edge31" class="edge"><title>yaml&#45;&gt;HealthDES_PersonBase</title><style>.edge>path:hover{stroke-width:8}</style>
<path fill="none" stroke="black" d="M597.083,-379.279C548.091,-301.598 626.19,-259.745 597.083,-172.64"/>
<path fill="none" stroke="black" d="M597.083,-170.64C591.2,-153.4 552.061,-130.281 520.447,-114.001"/>
<polygon fill="#95b653" stroke="black" points="521.847,-110.786 511.344,-109.391 518.685,-117.031 521.847,-110.786"/>
</g>
<!-- yaml&#45;&gt;networkx -->
<g id="edge32" class="edge"><title>yaml&#45;&gt;networkx</title><style>.edge>path:hover{stroke-width:8}</style>
<path fill="none" stroke="black" d="M601.697,-488.01C607.444,-462.828 614.533,-415.227 597.083,-380.279"/>
<path fill="none" stroke="black" d="M597.083,-379.279C574.667,-343.736 525.323,-331.85 490.441,-327.975"/>
<polygon fill="#95b653" stroke="black" points="490.408,-324.457 480.126,-327.012 489.757,-331.426 490.408,-324.457"/>
</g>
</g>
</svg>
