<?xml version="1.0" encoding="UTF-8" standalone="no"?>
<!DOCTYPE svg PUBLIC "-//W3C//DTD SVG 1.1//EN"
 "http://www.w3.org/Graphics/SVG/1.1/DTD/svg11.dtd">
<!-- Generated by graphviz version 2.38.0 (20140413.2041)
 -->
<!-- Title: G Pages: 1 -->
<svg width="277pt" height="657pt"
 viewBox="0.00 0.00 277.13 657.00" xmlns="http://www.w3.org/2000/svg" xmlns:xlink="http://www.w3.org/1999/xlink">
<g id="graph0" class="graph" transform="scale(1 1) rotate(0) translate(4 653)">
<title>G</title><style>.edge>path:hover{stroke-width:8}</style>
<polygon fill="white" stroke="none" points="-4,4 -4,-653 273.133,-653 273.133,4 -4,4"/>
<!-- run -->
<g id="node1" class="node"><title>run</title><style>.edge>path:hover{stroke-width:8}</style>
<ellipse fill="#a94cb3" stroke="black" cx="141.5" cy="-18" rx="27" ry="18"/>
<text text-anchor="middle" x="141.5" y="-15.5" font-family="Helvetica,sans-Serif" font-size="10.00" fill="#ffffff">run</text>
</g>
<!-- Activity -->
<g id="node2" class="node"><title>Activity</title><style>.edge>path:hover{stroke-width:8}</style>
<polygon fill="#a44646" stroke="black" points="113.5,-180 110.5,-184 89.5,-184 86.5,-180 59.5,-180 59.5,-144 113.5,-144 113.5,-180"/>
<text text-anchor="middle" x="86.5" y="-159.5" font-family="Helvetica,sans-Serif" font-size="10.00" fill="#ffffff">Activity</text>
</g>
<!-- Simulation -->
<g id="node7" class="node"><title>Simulation</title><style>.edge>path:hover{stroke-width:8}</style>
<polygon fill="#37816c" stroke="black" points="172.5,-108 169.5,-112 148.5,-112 145.5,-108 110.5,-108 110.5,-72 172.5,-72 172.5,-108"/>
<text text-anchor="middle" x="141.5" y="-87.5" font-family="Helvetica,sans-Serif" font-size="10.00" fill="#ffffff">Simulation</text>
</g>
<!-- Activity&#45;&gt;Simulation -->
<g id="edge1" class="edge"><title>Activity&#45;&gt;Simulation</title><style>.edge>path:hover{stroke-width:8}</style>
<path fill="none" stroke="black" d="M100.096,-143.697C106.623,-135.389 114.568,-125.277 121.747,-116.141"/>
<polygon fill="#a44646" stroke="black" points="124.635,-118.13 128.061,-108.104 119.131,-113.805 124.635,-118.13"/>
</g>
<!-- Configuration -->
<g id="node3" class="node"><title>Configuration</title><style>.edge>path:hover{stroke-width:8}</style>
<polygon fill="#b3844c" stroke="black" points="73,-324 70,-328 49,-328 46,-324 0,-324 0,-288 73,-288 73,-324"/>
<text text-anchor="middle" x="36.5" y="-303.5" font-family="Helvetica,sans-Serif" font-size="10.00" fill="#000000">Configuration</text>
</g>
<!-- Configuration&#45;&gt;Simulation -->
<g id="edge2" class="edge"><title>Configuration&#45;&gt;Simulation</title><style>.edge>path:hover{stroke-width:8}</style>
<path fill="none" stroke="black" d="M13.5,-161C24.5294,-124.288 67.2541,-106.518 100.344,-98.1249"/>
<polygon fill="#b3844c" stroke="black" points="101.315,-101.492 110.258,-95.8104 99.7239,-94.6755 101.315,-101.492"/>
<path fill="none" stroke="black" d="M28.7481,-287.623C17.7535,-260.525 0.350042,-206.77 13.5,-163"/>
</g>
<!-- HealthDES -->
<g id="node4" class="node"><title>HealthDES</title><style>.edge>path:hover{stroke-width:8}</style>
<polygon fill="#98a51d" stroke="black" points="217,-396 214,-400 193,-400 190,-396 152,-396 152,-360 217,-360 217,-396"/>
<text text-anchor="middle" x="184.5" y="-375.5" font-family="Helvetica,sans-Serif" font-size="10.00" fill="#000000">HealthDES</text>
</g>
<!-- HealthDES&#45;&gt;Activity -->
<g id="edge3" class="edge"><title>HealthDES&#45;&gt;Activity</title><style>.edge>path:hover{stroke-width:8}</style>
<path fill="none" stroke="black" d="M161.5,-233C158.461,-210.706 140.158,-193.369 122.396,-181.525"/>
<polygon fill="#98a51d" stroke="black" points="124.125,-178.479 113.789,-176.155 120.42,-184.418 124.125,-178.479"/>
<path fill="none" stroke="black" d="M161.5,-305C149.616,-276.248 165.702,-265.826 161.5,-235"/>
</g>
<!-- Microenvironment -->
<g id="node5" class="node"><title>Microenvironment</title><style>.edge>path:hover{stroke-width:8}</style>
<polygon fill="#5ca135" stroke="black" points="133.5,-252 130.5,-256 109.5,-256 106.5,-252 41.5,-252 41.5,-216 133.5,-216 133.5,-252"/>
<text text-anchor="middle" x="87.5" y="-231.5" font-family="Helvetica,sans-Serif" font-size="10.00" fill="#000000">Microenvironment</text>
</g>
<!-- HealthDES&#45;&gt;Microenvironment -->
<g id="edge4" class="edge"><title>HealthDES&#45;&gt;Microenvironment</title><style>.edge>path:hover{stroke-width:8}</style>
<path fill="none" stroke="black" d="M161.5,-305C153.748,-286.246 138.078,-270.24 123.145,-258.287"/>
<polygon fill="#98a51d" stroke="black" points="125.057,-255.343 114.98,-252.071 120.817,-260.913 125.057,-255.343"/>
<path fill="none" stroke="black" d="M179.62,-359.768C175.378,-345.438 168.781,-324.615 161.5,-307"/>
</g>
<!-- Person -->
<g id="node6" class="node"><title>Person</title><style>.edge>path:hover{stroke-width:8}</style>
<polygon fill="#46a457" stroke="black" points="223.5,-180 220.5,-184 199.5,-184 196.5,-180 169.5,-180 169.5,-144 223.5,-144 223.5,-180"/>
<text text-anchor="middle" x="196.5" y="-159.5" font-family="Helvetica,sans-Serif" font-size="10.00" fill="#ffffff">Person</text>
</g>
<!-- HealthDES&#45;&gt;Person -->
<g id="edge5" class="edge"><title>HealthDES&#45;&gt;Person</title><style>.edge>path:hover{stroke-width:8}</style>
<path fill="none" stroke="black" d="M161.5,-233C159.338,-217.139 166.579,-201.052 175.025,-188.305"/>
<polygon fill="#98a51d" stroke="black" points="177.961,-190.218 180.965,-180.058 172.281,-186.127 177.961,-190.218"/>
</g>
<!-- HealthDES&#45;&gt;Simulation -->
<g id="edge6" class="edge"><title>HealthDES&#45;&gt;Simulation</title><style>.edge>path:hover{stroke-width:8}</style>
<path fill="none" stroke="black" d="M161.5,-233C156.044,-192.971 149.469,-146.635 145.386,-118.07"/>
<polygon fill="#98a51d" stroke="black" points="148.832,-117.446 143.95,-108.042 141.903,-118.438 148.832,-117.446"/>
</g>
<!-- Microenvironment&#45;&gt;Activity -->
<g id="edge7" class="edge"><title>Microenvironment&#45;&gt;Activity</title><style>.edge>path:hover{stroke-width:8}</style>
<path fill="none" stroke="black" d="M87.2528,-215.697C87.1426,-207.983 87.0102,-198.712 86.8873,-190.112"/>
<polygon fill="#5ca135" stroke="black" points="90.3869,-190.053 86.7443,-180.104 83.3876,-190.153 90.3869,-190.053"/>
</g>
<!-- Microenvironment&#45;&gt;Simulation -->
<g id="edge8" class="edge"><title>Microenvironment&#45;&gt;Simulation</title><style>.edge>path:hover{stroke-width:8}</style>
<path fill="none" stroke="black" d="M48.4541,-215.922C27.2763,-203.81 6.68162,-185.695 13.5,-163"/>
</g>
<!-- Person&#45;&gt;Simulation -->
<g id="edge9" class="edge"><title>Person&#45;&gt;Simulation</title><style>.edge>path:hover{stroke-width:8}</style>
<path fill="none" stroke="black" d="M182.904,-143.697C176.377,-135.389 168.432,-125.277 161.253,-116.141"/>
<polygon fill="#46a457" stroke="black" points="163.869,-113.805 154.939,-108.104 158.365,-118.13 163.869,-113.805"/>
</g>
<!-- Simulation&#45;&gt;run -->
<g id="edge10" class="edge"><title>Simulation&#45;&gt;run</title><style>.edge>path:hover{stroke-width:8}</style>
<path fill="none" stroke="black" d="M141.5,-71.6966C141.5,-63.9827 141.5,-54.7125 141.5,-46.1124"/>
<polygon fill="#37816c" stroke="black" points="145,-46.1043 141.5,-36.1043 138,-46.1044 145,-46.1043"/>
</g>
<!-- main -->
<g id="node8" class="node"><title>main</title><style>.edge>path:hover{stroke-width:8}</style>
<polygon fill="#4c97b3" stroke="black" points="211.5,-649 208.5,-653 187.5,-653 184.5,-649 157.5,-649 157.5,-613 211.5,-613 211.5,-649"/>
<text text-anchor="middle" x="184.5" y="-628.5" font-family="Helvetica,sans-Serif" font-size="10.00" fill="#000000">main</text>
</g>
<!-- pkgresources -->
<g id="node10" class="node"><title>pkgresources</title><style>.edge>path:hover{stroke-width:8}</style>
<polygon fill="#6a3db8" stroke="black" points="222,-577 219,-581 198,-581 195,-577 147,-577 147,-541 222,-541 222,-577"/>
<text text-anchor="middle" x="184.5" y="-556.5" font-family="Helvetica,sans-Serif" font-size="10.00" fill="#ffffff">pkgresources</text>
</g>
<!-- main&#45;&gt;pkgresources -->
<g id="edge11" class="edge"><title>main&#45;&gt;pkgresources</title><style>.edge>path:hover{stroke-width:8}</style>
<path fill="none" stroke="black" d="M184.5,-612.697C184.5,-604.983 184.5,-595.712 184.5,-587.112"/>
<polygon fill="#4c97b3" stroke="black" points="188,-587.104 184.5,-577.104 181,-587.104 188,-587.104"/>
</g>
<!-- pandas -->
<g id="node9" class="node"><title>pandas</title><style>.edge>path:hover{stroke-width:8}</style>
<polygon fill="#2646d9" stroke="black" points="112.5,-505 109.5,-509 88.5,-509 85.5,-505 58.5,-505 58.5,-469 112.5,-469 112.5,-505"/>
<text text-anchor="middle" x="85.5" y="-484.5" font-family="Helvetica,sans-Serif" font-size="10.00" fill="#ffffff">pandas</text>
</g>
<!-- pandas&#45;&gt;Configuration -->
<g id="edge12" class="edge"><title>pandas&#45;&gt;Configuration</title><style>.edge>path:hover{stroke-width:8}</style>
<path fill="none" stroke="black" d="M82.4191,-468.716C81.2596,-458.067 81.1228,-444.33 85.5,-433"/>
<path fill="none" stroke="black" d="M85.5,-432C98.8584,-397.424 76.713,-357.57 58.0181,-332.338"/>
<polygon fill="#2646d9" stroke="black" points="60.7481,-330.146 51.8666,-324.37 55.2073,-334.424 60.7481,-330.146"/>
</g>
<!-- pandas&#45;&gt;HealthDES -->
<g id="edge13" class="edge"><title>pandas&#45;&gt;HealthDES</title><style>.edge>path:hover{stroke-width:8}</style>
<path fill="none" stroke="black" d="M85.5,-432C94.5273,-408.634 119.431,-395.372 142.001,-387.957"/>
<polygon fill="#2646d9" stroke="black" points="143.224,-391.245 151.809,-385.036 141.226,-384.537 143.224,-391.245"/>
</g>
<!-- simpy -->
<g id="node11" class="node"><title>simpy</title><style>.edge>path:hover{stroke-width:8}</style>
<polygon fill="#9f0458" stroke="black" points="211.5,-505 208.5,-509 187.5,-509 184.5,-505 157.5,-505 157.5,-469 211.5,-469 211.5,-505"/>
<text text-anchor="middle" x="184.5" y="-484.5" font-family="Helvetica,sans-Serif" font-size="10.00" fill="#ffffff">simpy</text>
</g>
<!-- pkgresources&#45;&gt;simpy -->
<g id="edge14" class="edge"><title>pkgresources&#45;&gt;simpy</title><style>.edge>path:hover{stroke-width:8}</style>
<path fill="none" stroke="black" d="M184.5,-540.697C184.5,-532.983 184.5,-523.712 184.5,-515.112"/>
<polygon fill="#6a3db8" stroke="black" points="188,-515.104 184.5,-505.104 181,-515.104 188,-515.104"/>
</g>
<!-- simpy&#45;&gt;HealthDES -->
<g id="edge15" class="edge"><title>simpy&#45;&gt;HealthDES</title><style>.edge>path:hover{stroke-width:8}</style>
<path fill="none" stroke="black" d="M184.5,-432C184.5,-423.683 184.5,-414.631 184.5,-406.401"/>
<polygon fill="#9f0458" stroke="black" points="188,-406.186 184.5,-396.186 181,-406.186 188,-406.186"/>
</g>
<!-- simpy&#45;&gt;Microenvironment -->
<g id="edge16" class="edge"><title>simpy&#45;&gt;Microenvironment</title><style>.edge>path:hover{stroke-width:8}</style>
<path fill="none" stroke="black" d="M184.5,-468.814C184.5,-458.442 184.5,-444.962 184.5,-433"/>
<path fill="none" stroke="black" d="M184.5,-432C184.5,-407.415 156.294,-416.351 142.5,-396 114.087,-354.081 99.063,-296.099 92.2378,-262.37"/>
<polygon fill="#9f0458" stroke="black" points="95.6309,-261.481 90.3034,-252.323 88.7571,-262.804 95.6309,-261.481"/>
</g>
<!-- simpy&#45;&gt;Simulation -->
<g id="edge17" class="edge"><title>simpy&#45;&gt;Simulation</title><style>.edge>path:hover{stroke-width:8}</style>
<path fill="none" stroke="black" d="M184.5,-432C185.251,-407.426 215.918,-418.191 226.5,-396 274.722,-294.878 288.332,-241.128 232.5,-144 221.588,-125.016 200.969,-112.195 182.113,-103.925"/>
<polygon fill="#9f0458" stroke="black" points="183.345,-100.647 172.763,-100.115 180.703,-107.13 183.345,-100.647"/>
</g>
</g>
</svg>
