<?xml version="1.0" encoding="UTF-8" standalone="no"?>
<!DOCTYPE svg PUBLIC "-//W3C//DTD SVG 1.1//EN"
 "http://www.w3.org/Graphics/SVG/1.1/DTD/svg11.dtd">
<!-- Generated by graphviz version 2.38.0 (20140413.2041)
 -->
<!-- Title: G Pages: 1 -->
<svg width="362pt" height="585pt"
 viewBox="0.00 0.00 362.04 585.00" xmlns="http://www.w3.org/2000/svg" xmlns:xlink="http://www.w3.org/1999/xlink">
<g id="graph0" class="graph" transform="scale(1 1) rotate(0) translate(4 581)">
<title>G</title><style>.edge>path:hover{stroke-width:8}</style>
<polygon fill="white" stroke="none" points="-4,4 -4,-581 358.037,-581 358.037,4 -4,4"/>
<!-- run -->
<g id="node1" class="node"><title>run</title><style>.edge>path:hover{stroke-width:8}</style>
<ellipse fill="#a94cb3" stroke="black" cx="140.537" cy="-18" rx="27" ry="18"/>
<text text-anchor="middle" x="140.537" y="-15.5" font-family="Helvetica,sans-Serif" font-size="10.00" fill="#ffffff">run</text>
</g>
<!-- Activity -->
<g id="node2" class="node"><title>Activity</title><style>.edge>path:hover{stroke-width:8}</style>
<polygon fill="#ac4949" stroke="black" points="68.5371,-180 65.5371,-184 44.5371,-184 41.5371,-180 14.5371,-180 14.5371,-144 68.5371,-144 68.5371,-180"/>
<text text-anchor="middle" x="41.5371" y="-159.5" font-family="Helvetica,sans-Serif" font-size="10.00" fill="#ffffff">Activity</text>
</g>
<!-- Simulation -->
<g id="node7" class="node"><title>Simulation</title><style>.edge>path:hover{stroke-width:8}</style>
<polygon fill="#347966" stroke="black" points="171.537,-108 168.537,-112 147.537,-112 144.537,-108 109.537,-108 109.537,-72 171.537,-72 171.537,-108"/>
<text text-anchor="middle" x="140.537" y="-87.5" font-family="Helvetica,sans-Serif" font-size="10.00" fill="#ffffff">Simulation</text>
</g>
<!-- Activity&#45;&gt;Simulation -->
<g id="edge1" class="edge"><title>Activity&#45;&gt;Simulation</title><style>.edge>path:hover{stroke-width:8}</style>
<path fill="none" stroke="black" d="M65.7553,-143.876C78.4598,-134.893 94.2016,-123.763 107.96,-114.034"/>
<polygon fill="#ac4949" stroke="black" points="110.081,-116.821 116.226,-108.19 106.04,-111.105 110.081,-116.821"/>
</g>
<!-- Configuration -->
<g id="node3" class="node"><title>Configuration</title><style>.edge>path:hover{stroke-width:8}</style>
<polygon fill="#b3844c" stroke="black" points="82.0371,-252 79.0371,-256 58.0371,-256 55.0371,-252 9.03714,-252 9.03714,-216 82.0371,-216 82.0371,-252"/>
<text text-anchor="middle" x="45.5371" y="-231.5" font-family="Helvetica,sans-Serif" font-size="10.00" fill="#000000">Configuration</text>
</g>
<!-- Configuration&#45;&gt;Simulation -->
<g id="edge2" class="edge"><title>Configuration&#45;&gt;Simulation</title><style>.edge>path:hover{stroke-width:8}</style>
<path fill="none" stroke="black" d="M27.689,-215.673C10.7055,-197.025 -10.1118,-166.955 5.53714,-144 26.3708,-113.439 67.7448,-100.5 99.2272,-95.0217"/>
<polygon fill="#b3844c" stroke="black" points="100.133,-98.4232 109.481,-93.4352 99.063,-91.5055 100.133,-98.4232"/>
</g>
<!-- HealthDES -->
<g id="node4" class="node"><title>HealthDES</title><style>.edge>path:hover{stroke-width:8}</style>
<polygon fill="#9aa904" stroke="black" points="201.037,-324 198.037,-328 177.037,-328 174.037,-324 136.037,-324 136.037,-288 201.037,-288 201.037,-324"/>
<text text-anchor="middle" x="168.537" y="-303.5" font-family="Helvetica,sans-Serif" font-size="10.00" fill="#000000">HealthDES</text>
</g>
<!-- HealthDES&#45;&gt;Activity -->
<g id="edge3" class="edge"><title>HealthDES&#45;&gt;Activity</title><style>.edge>path:hover{stroke-width:8}</style>
<path fill="none" stroke="black" d="M170.23,-287.874C171.238,-273.607 171.768,-252.817 168.537,-235"/>
<path fill="none" stroke="black" d="M168.537,-233C167.611,-227.89 115.11,-200.283 77.909,-181.305"/>
<polygon fill="#9aa904" stroke="black" points="79.3218,-178.097 68.8215,-176.685 76.1494,-184.337 79.3218,-178.097"/>
</g>
<!-- Microenvironment -->
<g id="node5" class="node"><title>Microenvironment</title><style>.edge>path:hover{stroke-width:8}</style>
<polygon fill="#68a446" stroke="black" points="288.537,-180 285.537,-184 264.537,-184 261.537,-180 196.537,-180 196.537,-144 288.537,-144 288.537,-180"/>
<text text-anchor="middle" x="242.537" y="-159.5" font-family="Helvetica,sans-Serif" font-size="10.00" fill="#000000">Microenvironment</text>
</g>
<!-- HealthDES&#45;&gt;Microenvironment -->
<g id="edge4" class="edge"><title>HealthDES&#45;&gt;Microenvironment</title><style>.edge>path:hover{stroke-width:8}</style>
<path fill="none" stroke="black" d="M168.537,-233C164.99,-213.441 178.825,-197.562 195.462,-185.903"/>
<polygon fill="#9aa904" stroke="black" points="197.822,-188.546 204.339,-180.193 194.035,-182.658 197.822,-188.546"/>
</g>
<!-- Person -->
<g id="node6" class="node"><title>Person</title><style>.edge>path:hover{stroke-width:8}</style>
<polygon fill="#49ac5b" stroke="black" points="140.537,-180 137.537,-184 116.537,-184 113.537,-180 86.5371,-180 86.5371,-144 140.537,-144 140.537,-180"/>
<text text-anchor="middle" x="113.537" y="-159.5" font-family="Helvetica,sans-Serif" font-size="10.00" fill="#000000">Person</text>
</g>
<!-- HealthDES&#45;&gt;Person -->
<g id="edge5" class="edge"><title>HealthDES&#45;&gt;Person</title><style>.edge>path:hover{stroke-width:8}</style>
<path fill="none" stroke="black" d="M168.537,-233C165.363,-215.495 153.923,-199.579 142.293,-187.363"/>
<polygon fill="#9aa904" stroke="black" points="144.672,-184.793 135.099,-180.254 139.752,-189.772 144.672,-184.793"/>
</g>
<!-- HealthDES&#45;&gt;Simulation -->
<g id="edge6" class="edge"><title>HealthDES&#45;&gt;Simulation</title><style>.edge>path:hover{stroke-width:8}</style>
<path fill="none" stroke="black" d="M168.537,-233C161.262,-192.88 151.96,-146.568 146.123,-118.033"/>
<polygon fill="#9aa904" stroke="black" points="149.507,-117.109 144.068,-108.017 142.65,-118.517 149.507,-117.109"/>
</g>
<!-- Microenvironment&#45;&gt;Simulation -->
<g id="edge7" class="edge"><title>Microenvironment&#45;&gt;Simulation</title><style>.edge>path:hover{stroke-width:8}</style>
<path fill="none" stroke="black" d="M217.585,-143.876C204.496,-134.893 188.277,-123.763 174.101,-114.034"/>
<polygon fill="#68a446" stroke="black" points="175.811,-110.962 165.585,-108.19 171.85,-116.734 175.811,-110.962"/>
</g>
<!-- Person&#45;&gt;Simulation -->
<g id="edge8" class="edge"><title>Person&#45;&gt;Simulation</title><style>.edge>path:hover{stroke-width:8}</style>
<path fill="none" stroke="black" d="M120.211,-143.697C123.252,-135.813 126.92,-126.304 130.298,-117.546"/>
<polygon fill="#49ac5b" stroke="black" points="133.606,-118.694 133.94,-108.104 127.075,-116.175 133.606,-118.694"/>
</g>
<!-- Simulation&#45;&gt;run -->
<g id="edge9" class="edge"><title>Simulation&#45;&gt;run</title><style>.edge>path:hover{stroke-width:8}</style>
<path fill="none" stroke="black" d="M140.537,-71.6966C140.537,-63.9827 140.537,-54.7125 140.537,-46.1124"/>
<polygon fill="#347966" stroke="black" points="144.037,-46.1043 140.537,-36.1043 137.037,-46.1044 144.037,-46.1043"/>
</g>
<!-- main -->
<g id="node8" class="node"><title>main</title><style>.edge>path:hover{stroke-width:8}</style>
<polygon fill="#4c97b3" stroke="black" points="343.537,-577 340.537,-581 319.537,-581 316.537,-577 289.537,-577 289.537,-541 343.537,-541 343.537,-577"/>
<text text-anchor="middle" x="316.537" y="-556.5" font-family="Helvetica,sans-Serif" font-size="10.00" fill="#000000">main</text>
</g>
<!-- pkgresources -->
<g id="node10" class="node"><title>pkgresources</title><style>.edge>path:hover{stroke-width:8}</style>
<polygon fill="#6a3db8" stroke="black" points="354.037,-505 351.037,-509 330.037,-509 327.037,-505 279.037,-505 279.037,-469 354.037,-469 354.037,-505"/>
<text text-anchor="middle" x="316.537" y="-484.5" font-family="Helvetica,sans-Serif" font-size="10.00" fill="#ffffff">pkgresources</text>
</g>
<!-- main&#45;&gt;pkgresources -->
<g id="edge10" class="edge"><title>main&#45;&gt;pkgresources</title><style>.edge>path:hover{stroke-width:8}</style>
<path fill="none" stroke="black" d="M316.537,-540.697C316.537,-532.983 316.537,-523.712 316.537,-515.112"/>
<polygon fill="#4c97b3" stroke="black" points="320.037,-515.104 316.537,-505.104 313.037,-515.104 320.037,-515.104"/>
</g>
<!-- pandas -->
<g id="node9" class="node"><title>pandas</title><style>.edge>path:hover{stroke-width:8}</style>
<polygon fill="#2646d9" stroke="black" points="134.537,-433 131.537,-437 110.537,-437 107.537,-433 80.5371,-433 80.5371,-397 134.537,-397 134.537,-433"/>
<text text-anchor="middle" x="107.537" y="-412.5" font-family="Helvetica,sans-Serif" font-size="10.00" fill="#ffffff">pandas</text>
</g>
<!-- pandas&#45;&gt;Configuration -->
<g id="edge11" class="edge"><title>pandas&#45;&gt;Configuration</title><style>.edge>path:hover{stroke-width:8}</style>
<path fill="none" stroke="black" d="M105.343,-396.533C104.566,-386.061 104.519,-372.575 107.537,-361"/>
<path fill="none" stroke="black" d="M107.537,-360C117.148,-323.146 91.5673,-284.411 70.3965,-260.007"/>
<polygon fill="#2646d9" stroke="black" points="72.7418,-257.381 63.4432,-252.303 67.5455,-262.072 72.7418,-257.381"/>
</g>
<!-- pandas&#45;&gt;HealthDES -->
<g id="edge12" class="edge"><title>pandas&#45;&gt;HealthDES</title><style>.edge>path:hover{stroke-width:8}</style>
<path fill="none" stroke="black" d="M107.537,-360C110.635,-348.122 118.741,-338.172 128.071,-330.219"/>
<polygon fill="#2646d9" stroke="black" points="130.336,-332.892 136.112,-324.011 126.058,-327.352 130.336,-332.892"/>
</g>
<!-- simpy -->
<g id="node11" class="node"><title>simpy</title><style>.edge>path:hover{stroke-width:8}</style>
<polygon fill="#9f0458" stroke="black" points="343.537,-433 340.537,-437 319.537,-437 316.537,-433 289.537,-433 289.537,-397 343.537,-397 343.537,-433"/>
<text text-anchor="middle" x="316.537" y="-412.5" font-family="Helvetica,sans-Serif" font-size="10.00" fill="#ffffff">simpy</text>
</g>
<!-- pkgresources&#45;&gt;simpy -->
<g id="edge13" class="edge"><title>pkgresources&#45;&gt;simpy</title><style>.edge>path:hover{stroke-width:8}</style>
<path fill="none" stroke="black" d="M316.537,-468.697C316.537,-460.983 316.537,-451.712 316.537,-443.112"/>
<polygon fill="#6a3db8" stroke="black" points="320.037,-443.104 316.537,-433.104 313.037,-443.104 320.037,-443.104"/>
</g>
<!-- simpy&#45;&gt;HealthDES -->
<g id="edge14" class="edge"><title>simpy&#45;&gt;HealthDES</title><style>.edge>path:hover{stroke-width:8}</style>
<path fill="none" stroke="black" d="M320.327,-396.859C321.838,-386.01 322.099,-372.004 316.537,-361"/>
<path fill="none" stroke="black" d="M316.537,-360C297.656,-322.645 248.282,-311.025 211.727,-307.713"/>
<polygon fill="#9f0458" stroke="black" points="211.544,-304.191 201.317,-306.958 211.038,-311.172 211.544,-304.191"/>
</g>
<!-- simpy&#45;&gt;Microenvironment -->
<g id="edge15" class="edge"><title>simpy&#45;&gt;Microenvironment</title><style>.edge>path:hover{stroke-width:8}</style>
<path fill="none" stroke="black" d="M316.537,-233C311.871,-213.711 297.076,-197.882 281.929,-186.186"/>
<polygon fill="#9f0458" stroke="black" points="283.694,-183.143 273.54,-180.118 279.591,-188.815 283.694,-183.143"/>
<path fill="none" stroke="black" d="M316.537,-360C291.476,-310.418 329.6,-288.998 316.537,-235"/>
</g>
<!-- simpy&#45;&gt;Simulation -->
<g id="edge16" class="edge"><title>simpy&#45;&gt;Simulation</title><style>.edge>path:hover{stroke-width:8}</style>
<path fill="none" stroke="black" d="M316.537,-233C308.669,-193.326 324.443,-174.2 297.537,-144 268.189,-111.058 217.659,-98.5644 181.859,-93.8413"/>
<polygon fill="#9f0458" stroke="black" points="182.061,-90.3412 171.722,-92.6576 181.249,-97.2939 182.061,-90.3412"/>
</g>
</g>
</svg>
